# This file uses centimeters as units for non-parametric coordinates.

mtllib CajaJuguetesCuerpo.mtl
g default
v -1.606926 2.432891 1.308198
v -1.619675 2.432891 0.553983
v -1.606926 2.674433 1.308198
v -1.619675 2.674433 0.553983
v -1.627593 2.674433 1.308547
v -1.640342 2.674433 0.554332
v -1.627593 2.432891 1.308547
v -1.640342 2.432891 0.554332
v -1.605759 2.431105 1.306597
v -1.606084 2.431105 1.287342
v -1.605759 2.672758 1.306597
v -1.606084 2.672758 1.287342
v -2.079836 2.672758 1.314611
v -2.080161 2.672758 1.295355
v -2.079836 2.431105 1.314611
v -2.080161 2.431105 1.295355
v -1.618126 2.431105 0.574946
v -1.618452 2.431105 0.555690
v -1.618126 2.672758 0.574946
v -1.618452 2.672758 0.555690
v -2.092203 2.672758 0.582959
v -2.092529 2.672758 0.563703
v -2.092203 2.431105 0.582959
v -2.092529 2.431105 0.563703
v -2.057377 2.432891 1.315812
v -2.070126 2.432891 0.561597
v -2.057377 2.674433 1.315812
v -2.070126 2.674433 0.561597
v -2.078044 2.674433 1.316161
v -2.090793 2.674433 0.561946
v -2.078044 2.432891 1.316161
v -2.090793 2.432891 0.561946
v -1.605732 2.415401 1.308177
v -1.618481 2.415401 0.553963
v -1.605732 2.433778 1.308177
v -1.618481 2.433778 0.553963
v -2.079809 2.433778 1.316191
v -2.092558 2.433778 0.561976
v -2.079809 2.415401 1.316191
v -2.092558 2.415401 0.561976
vt 0.372400 0.059240
vt 0.522698 0.529615
vt 0.372400 0.129157
vt 0.459082 0.129157
vt 0.782792 0.114816
vt 0.459082 0.199075
vt 0.372400 0.268993
vt 0.927390 0.259414
vt 0.372400 0.338911
vt 0.459082 0.338911
vt 0.545765 0.059240
vt 0.545765 0.129157
vt 0.285717 0.059240
vt 0.285717 0.129157
vt 0.472923 0.610708
vt 0.459082 0.059240
vt 0.764891 0.229013
vt 0.372400 0.129157
vt 0.459082 0.199075
vt 0.372400 0.199075
vt 0.459082 0.268993
vt 0.372400 0.268993
vt 0.459082 0.338911
vt 0.372400 0.338911
vt 0.909489 0.084415
vt 0.909489 0.229013
vt 0.075225 0.610708
vt 0.075225 0.927251
vt 0.903162 0.114508
vt 0.459082 0.059240
vt 0.062582 0.930870
vt 0.372400 0.129157
vt 0.459082 0.199075
vt 0.372400 0.199075
vt 0.459082 0.268993
vt 0.372400 0.268993
vt 0.459082 0.338911
vt 0.372400 0.338911
vt 0.486495 0.607089
vt 0.486495 0.930870
vt 0.758564 0.114508
vt 0.758564 0.259106
vt 0.372400 0.059240
vt 0.912383 0.069330
vt 0.459082 0.129157
vt 0.372400 0.129157
vt 0.459082 0.199075
vt 0.372400 0.199075
vt 0.459082 0.268993
vt 0.372400 0.268993
vt 0.459082 0.338911
vt 0.372400 0.338911
vt 0.545765 0.059240
vt 0.545765 0.129157
vt 0.285717 0.059240
vt 0.285717 0.129157
vt 0.372400 0.059240
vt 0.459082 0.059240
vt 0.459082 0.129157
vt 0.764737 0.096606
vt 0.909335 0.241205
vt 0.372400 0.199075
vt 0.459082 0.268993
vt 0.372400 0.268993
vt 0.459082 0.338911
vt 0.372400 0.338911
vt 0.545765 0.059240
vt 0.545765 0.129157
vt 0.285717 0.059240
vt 0.285717 0.129157
vt 0.459082 0.268993
vt 0.459082 0.059240
vt 0.372400 0.268993
vt 0.372400 0.059240
vt 0.459082 0.199075
vt 0.764737 0.241205
vt 0.459082 0.129157
vt 0.909335 0.096606
vt 0.372400 0.129157
vt 0.372400 0.129157
vt 0.459082 0.268993
vt 0.459082 0.059240
vt 0.372400 0.268993
vt 0.761689 0.069330
vt 0.459082 0.199075
vt 0.372400 0.199075
vt 0.912383 0.220025
vt 0.459082 0.129157
vt 0.761689 0.220025
vt 0.372400 0.129157
vt 0.459082 0.268993
vt 0.062582 0.607089
vt 0.372400 0.268993
vt 0.372400 0.059240
vt 0.459082 0.199075
vt 0.372400 0.199075
vt 0.459082 0.129157
vt 0.459082 0.129157
vt 0.372400 0.129157
vt 0.903162 0.259106
vt 0.459082 0.268993
vt 0.764891 0.084415
vt 0.372400 0.268993
vt 0.372400 0.059240
vt 0.459082 0.199075
vt 0.372400 0.199075
vt 0.459082 0.129157
vt 0.459082 0.129157
vt 0.372400 0.129157
vt 0.472923 0.927251
vt 0.459082 0.268993
vt 0.459082 0.059240
vt 0.782792 0.259414
vt 0.043970 0.529615
vt 0.927390 0.114816
vt 0.372400 0.199075
vt 0.522698 1.008343
vt 0.459082 0.129157
vt 0.043970 1.008343
vt 0.372400 0.129157
vn 0.999857 0.000000 -0.016901
vn 0.999857 0.000000 -0.016901
vn 0.999857 0.000000 -0.016901
vn 0.999857 0.000000 -0.016901
vn 0.000000 1.000000 -0.000000
vn 0.000000 1.000000 -0.000000
vn 0.000000 1.000000 -0.000000
vn 0.000000 1.000000 -0.000000
vn -0.999857 0.000000 0.016901
vn -0.999857 0.000000 0.016901
vn -0.999857 0.000000 0.016901
vn -0.999857 0.000000 0.016901
vn 0.000000 -1.000000 0.000000
vn 0.000000 -1.000000 0.000000
vn 0.000000 -1.000000 0.000000
vn 0.000000 -1.000000 0.000000
vn -0.016901 0.000000 -0.999857
vn -0.016901 0.000000 -0.999857
vn -0.016901 0.000000 -0.999857
vn -0.016901 0.000000 -0.999857
vn 0.016901 0.000000 0.999857
vn 0.016901 0.000000 0.999857
vn 0.016901 0.000000 0.999857
vn 0.016901 0.000000 0.999857
vn 0.999857 0.000000 -0.016901
vn 0.999857 0.000000 -0.016901
vn 0.999857 0.000000 -0.016901
vn 0.999857 0.000000 -0.016901
vn 0.000000 1.000000 -0.000000
vn 0.000000 1.000000 -0.000000
vn 0.000000 1.000000 -0.000000
vn 0.000000 1.000000 -0.000000
vn -0.999857 0.000000 0.016901
vn -0.999857 0.000000 0.016901
vn -0.999857 0.000000 0.016901
vn -0.999857 0.000000 0.016901
vn 0.000000 -1.000000 0.000000
vn 0.000000 -1.000000 0.000000
vn 0.000000 -1.000000 0.000000
vn 0.000000 -1.000000 0.000000
vn -0.016901 0.000000 -0.999857
vn -0.016901 0.000000 -0.999857
vn -0.016901 0.000000 -0.999857
vn -0.016901 0.000000 -0.999857
vn 0.016901 0.000000 0.999857
vn 0.016901 0.000000 0.999857
vn 0.016901 0.000000 0.999857
vn 0.016901 0.000000 0.999857
vn 0.999857 0.000000 -0.016901
vn 0.999857 0.000000 -0.016901
vn 0.999857 0.000000 -0.016901
vn 0.999857 0.000000 -0.016901
vn 0.000000 1.000000 -0.000000
vn 0.000000 1.000000 -0.000000
vn 0.000000 1.000000 -0.000000
vn 0.000000 1.000000 -0.000000
vn -0.999857 0.000000 0.016901
vn -0.999857 0.000000 0.016901
vn -0.999857 0.000000 0.016901
vn -0.999857 0.000000 0.016901
vn 0.000000 -1.000000 0.000000
vn 0.000000 -1.000000 0.000000
vn 0.000000 -1.000000 0.000000
vn 0.000000 -1.000000 0.000000
vn -0.016901 0.000000 -0.999857
vn -0.016901 0.000000 -0.999857
vn -0.016901 0.000000 -0.999857
vn -0.016901 0.000000 -0.999857
vn 0.016901 0.000000 0.999857
vn 0.016901 0.000000 0.999857
vn 0.016901 0.000000 0.999857
vn 0.016901 0.000000 0.999857
vn 0.999857 0.000000 -0.016901
vn 0.999857 0.000000 -0.016901
vn 0.999857 0.000000 -0.016901
vn 0.999857 0.000000 -0.016901
vn 0.000000 1.000000 -0.000000
vn 0.000000 1.000000 -0.000000
vn 0.000000 1.000000 -0.000000
vn 0.000000 1.000000 -0.000000
vn -0.999857 0.000000 0.016901
vn -0.999857 0.000000 0.016901
vn -0.999857 0.000000 0.016901
vn -0.999857 0.000000 0.016901
vn 0.000000 -1.000000 0.000000
vn 0.000000 -1.000000 0.000000
vn 0.000000 -1.000000 0.000000
vn 0.000000 -1.000000 0.000000
vn -0.016901 0.000000 -0.999857
vn -0.016901 0.000000 -0.999857
vn -0.016901 0.000000 -0.999857
vn -0.016901 0.000000 -0.999857
vn 0.016901 0.000000 0.999857
vn 0.016901 0.000000 0.999857
vn 0.016901 0.000000 0.999857
vn 0.016901 0.000000 0.999857
vn 0.999857 0.000000 -0.016901
vn 0.999857 0.000000 -0.016901
vn 0.999857 0.000000 -0.016901
vn 0.999857 0.000000 -0.016901
vn 0.000000 1.000000 -0.000000
vn 0.000000 1.000000 -0.000000
vn 0.000000 1.000000 -0.000000
vn 0.000000 1.000000 -0.000000
vn -0.999857 0.000000 0.016901
vn -0.999857 0.000000 0.016901
vn -0.999857 0.000000 0.016901
vn -0.999857 0.000000 0.016901
vn 0.000000 -1.000000 0.000000
vn 0.000000 -1.000000 0.000000
vn 0.000000 -1.000000 0.000000
vn 0.000000 -1.000000 0.000000
vn -0.016901 0.000000 -0.999857
vn -0.016901 0.000000 -0.999857
vn -0.016901 0.000000 -0.999857
vn -0.016901 0.000000 -0.999857
vn 0.016901 0.000000 0.999857
vn 0.016901 0.000000 0.999857
vn 0.016901 0.000000 0.999857
vn 0.016901 0.000000 0.999857
s off
g pasted__group1_pasted__group_pasted__pasted__pCube1 group79
usemtl pasted__lambert3SG1
f 1/114/1 2/2/2 4/117/3 3/119/4
f 3/3/5 4/118/6 6/6/7 5/116/8
f 5/5/9 6/115/10 8/8/11 7/113/12
f 7/7/13 8/111/14 2/10/15 1/9/16
f 2/112/17 8/11/18 6/12/19 4/4/20
f 7/13/21 1/1/22 3/120/23 5/14/24
f 9/104/25 10/16/26 12/107/27 11/109/28
f 11/18/29 12/108/30 14/19/31 13/106/32
f 13/20/33 14/105/34 16/21/35 15/103/36
f 15/22/37 16/101/38 10/23/39 9/24/40
f 10/102/41 16/25/42 14/26/43 12/17/44
f 15/27/45 9/15/46 11/110/47 13/28/48
f 17/94/49 18/30/50 20/97/51 19/99/52
f 19/32/53 20/98/54 22/33/55 21/96/56
f 21/34/57 22/95/58 24/35/59 23/93/60
f 23/36/61 24/91/62 18/37/63 17/38/64
f 18/92/65 24/39/66 22/40/67 20/31/68
f 23/41/69 17/29/70 19/100/71 21/42/72
f 25/84/73 26/44/74 28/87/75 27/89/76
f 27/46/77 28/88/78 30/47/79 29/86/80
f 29/48/81 30/85/82 32/49/83 31/83/84
f 31/50/85 32/81/86 26/51/87 25/52/88
f 26/82/89 32/53/90 30/54/91 28/45/92
f 31/55/93 25/43/94 27/90/95 29/56/96
f 33/74/97 34/58/98 36/77/99 35/79/100
f 35/60/101 36/78/102 38/61/103 37/76/104
f 37/62/105 38/75/106 40/63/107 39/73/108
f 39/64/109 40/71/110 34/65/111 33/66/112
f 34/72/113 40/67/114 38/68/115 36/59/116
f 39/69/117 33/57/118 35/80/119 37/70/120
