# This file uses centimeters as units for non-parametric coordinates.

mtllib Poke_arriba.mtl
g default
v 0.897123 0.092268 0.550486
v 0.680472 0.092268 0.255582
v 0.371920 0.092268 0.058856
v 0.013137 0.092268 -0.013124
v -0.347419 0.092268 0.049364
v -0.661055 0.092268 0.237881
v -0.885411 0.092268 0.526965
v -0.990188 0.092268 0.877576
v -0.961234 0.092268 1.242360
v -0.802461 0.092268 1.572052
v -0.535310 0.092268 1.822124
v -0.195863 0.092268 1.958804
v 0.170036 0.092268 1.963632
v 0.512971 0.092268 1.835956
v 0.786627 0.092268 1.593019
v 0.954044 0.092268 1.267632
v 0.992612 0.092268 0.903738
v 0.866572 0.273663 0.565198
v 0.657299 0.273663 0.280337
v 0.359254 0.273663 0.090310
v 0.012690 0.273663 0.020782
v -0.335588 0.273663 0.081142
v -0.638543 0.273663 0.263239
v -0.855260 0.273663 0.542479
v -0.956468 0.273663 0.881150
v -0.928501 0.273663 1.233511
v -0.775134 0.273663 1.551976
v -0.517081 0.273663 1.793533
v -0.189194 0.273663 1.925558
v 0.164246 0.273663 1.930222
v 0.495503 0.273663 1.806894
v 0.759839 0.273663 1.572230
v 0.921555 0.273663 1.257923
v 0.958810 0.273663 0.906421
v 0.806512 0.445738 0.594122
v 0.611743 0.445738 0.329004
v 0.334355 0.445738 0.152148
v 0.011811 0.445738 0.087438
v -0.312329 0.445738 0.143615
v -0.594287 0.445738 0.313091
v -0.795983 0.445738 0.572978
v -0.890177 0.445738 0.888176
v -0.864148 0.445738 1.216116
v -0.721411 0.445738 1.512508
v -0.481243 0.445738 1.737323
v -0.176081 0.445738 1.860198
v 0.152862 0.445738 1.864539
v 0.461160 0.445738 1.749758
v 0.707176 0.445738 1.531358
v 0.857684 0.445738 1.238835
v 0.892357 0.445738 0.911696
v 0.718987 0.602635 0.636273
v 0.545355 0.602635 0.399927
v 0.298070 0.602635 0.242263
v 0.010529 0.602635 0.184576
v -0.278434 0.602635 0.234656
v -0.529793 0.602635 0.385740
v -0.709600 0.602635 0.617423
v -0.793572 0.602635 0.898415
v -0.770368 0.602635 1.190766
v -0.643121 0.602635 1.454993
v -0.429017 0.602635 1.655410
v -0.156972 0.602635 1.764950
v 0.136273 0.602635 1.768820
v 0.411114 0.602635 1.666495
v 0.630431 0.602635 1.471797
v 0.764605 0.602635 1.211019
v 0.795515 0.602635 0.919382
v 0.606977 0.739009 0.690215
v 0.460395 0.739009 0.490688
v 0.251634 0.739009 0.357587
v 0.008889 0.739009 0.308887
v -0.235057 0.739009 0.351165
v -0.447258 0.739009 0.478712
v -0.599053 0.739009 0.674301
v -0.669943 0.739009 0.911518
v -0.650354 0.739009 1.158324
v -0.542930 0.739009 1.381388
v -0.362181 0.739009 1.550582
v -0.132518 0.739009 1.643058
v 0.115043 0.739009 1.646324
v 0.347067 0.739009 1.559941
v 0.532217 0.739009 1.395574
v 0.645489 0.739009 1.175423
v 0.671583 0.739009 0.929219
v 0.474298 0.850217 0.754111
v 0.359757 0.850217 0.598199
v 0.196629 0.850217 0.494192
v 0.006946 0.850217 0.456138
v -0.183676 0.850217 0.489174
v -0.349491 0.850217 0.588840
v -0.468106 0.850217 0.741676
v -0.523500 0.850217 0.927039
v -0.508193 0.850217 1.119896
v -0.424251 0.850217 1.294200
v -0.283012 0.850217 1.426410
v -0.103551 0.850217 1.498671
v 0.089896 0.850217 1.501224
v 0.271201 0.850217 1.433723
v 0.415880 0.850217 1.305285
v 0.504391 0.850217 1.133257
v 0.524782 0.850217 0.940871
v 0.325467 0.932472 0.825785
v 0.246868 0.932472 0.718797
v 0.134928 0.932472 0.647427
v 0.004766 0.932472 0.621314
v -0.126040 0.932472 0.643984
v -0.239824 0.932472 0.712376
v -0.321218 0.932472 0.817252
v -0.359230 0.932472 0.944450
v -0.348726 0.932472 1.076790
v -0.291124 0.932472 1.196398
v -0.194205 0.932472 1.287122
v -0.071057 0.932472 1.336708
v 0.061687 0.932472 1.338460
v 0.186100 0.932472 1.292140
v 0.285380 0.932472 1.204005
v 0.346117 0.932472 1.085958
v 0.360109 0.932472 0.953941
v 0.165552 0.982973 0.902797
v 0.125572 0.982973 0.848377
v 0.068633 0.982973 0.812073
v 0.002424 0.982973 0.798790
v -0.064112 0.982973 0.810322
v -0.121989 0.982973 0.845110
v -0.163391 0.982973 0.898457
v -0.182726 0.982973 0.963157
v -0.177383 0.982973 1.030473
v -0.148083 0.982973 1.091314
v -0.098784 0.982973 1.137461
v -0.036144 0.982973 1.162684
v 0.031378 0.982973 1.163575
v 0.094662 0.982973 1.140014
v 0.145162 0.982973 1.095183
v 0.176056 0.982973 1.035137
v 0.183173 0.982973 0.967985
v 0.000000 1.000000 0.982524
vt 0.981802 0.523082
vt 1.069564 0.523018
vt 1.069612 0.600054
vt 0.981828 0.600244
vt 1.157138 0.522922
vt 1.157202 0.599768
vt 1.244466 0.522806
vt 1.244537 0.599426
vt 1.331524 0.522688
vt 1.331592 0.599075
vt -0.149713 0.522688
vt -0.062914 0.522582
vt -0.062858 0.598763
vt -0.149646 0.599075
vt 0.023673 0.522504
vt 0.023710 0.598529
vt 0.110121 0.522462
vt 0.110134 0.598404
vt 0.196521 0.522462
vt 0.196509 0.598404
vt 0.282970 0.522504
vt 0.282933 0.598529
vt 0.369557 0.522582
vt 0.369501 0.598763
vt 0.456356 0.522688
vt 0.456288 0.599075
vt 0.543414 0.522806
vt 0.543343 0.599426
vt 0.630742 0.522922
vt 0.630678 0.599768
vt 0.718316 0.523018
vt 0.718268 0.600054
vt 0.806078 0.523082
vt 0.806052 0.600244
vt 0.893940 0.523104
vt 0.893940 0.600311
vt 1.069718 0.677066
vt 0.981885 0.677375
vt 1.157342 0.676600
vt 1.244691 0.676043
vt 1.331740 0.675471
vt -0.062736 0.674962
vt -0.149498 0.675471
vt 0.023790 0.674581
vt 0.110162 0.674378
vt 0.196481 0.674378
vt 0.282853 0.674581
vt 0.369379 0.674962
vt 0.456140 0.675471
vt 0.543189 0.676043
vt 0.630538 0.676600
vt 0.718162 0.677066
vt 0.805995 0.677375
vt 0.893940 0.677483
vt 0.110215 0.960270
vt 0.099521 0.976668
vt 0.092778 0.970321
vt 0.101634 0.956787
vt 0.083626 0.988096
vt 0.079631 0.979741
vt 0.064677 0.993010
vt 0.063969 0.983776
vt 0.045231 0.990747
vt 0.047907 0.981881
vt 0.027917 0.981612
vt 0.033614 0.974312
vt 0.015071 0.966840
vt 0.023021 0.962090
vt 0.008429 0.948424
vt 0.017558 0.946868
vt 0.008888 0.928853
vt 0.017963 0.930699
vt 0.016386 0.910769
vt 0.024181 0.915769
vt 0.029910 0.896615
vt 0.035373 0.904093
vt 0.047635 0.888303
vt 0.050027 0.897249
vt 0.067165 0.886954
vt 0.066164 0.896160
vt 0.085863 0.892752
vt 0.081604 0.900975
vt 0.101205 0.904912
vt 0.094263 0.911041
vt 0.111117 0.921794
vt 0.102430 0.925001
vt 0.114262 0.941116
vt 0.105003 0.940969
vt 0.086214 0.964117
vt 0.093272 0.953374
vt 0.075752 0.971585
vt 0.063298 0.974770
vt 0.050535 0.973240
vt 0.039186 0.967204
vt 0.030784 0.957475
vt 0.026464 0.945368
vt 0.026809 0.932518
vt 0.031773 0.920661
vt 0.040685 0.911398
vt 0.052342 0.905979
vt 0.065169 0.905137
vt 0.077433 0.908986
vt 0.087480 0.917005
vt 0.093951 0.928112
vt 0.095973 0.940806
vt 0.079787 0.958005
vt 0.085072 0.949996
vt 0.071967 0.963565
vt 0.062666 0.965924
vt 0.053141 0.964763
vt 0.044679 0.960241
vt 0.038421 0.952966
vt 0.035214 0.943923
vt 0.035491 0.934332
vt 0.039213 0.925488
vt 0.045879 0.918586
vt 0.054588 0.914558
vt 0.064164 0.913949
vt 0.073313 0.916839
vt 0.080801 0.922840
vt 0.085615 0.931140
vt 0.087106 0.940619
vt 0.073465 0.951947
vt 0.076988 0.946631
vt 0.068260 0.955631
vt 0.062075 0.957187
vt 0.055747 0.956403
vt 0.050128 0.953386
vt 0.045979 0.948543
vt 0.043859 0.942529
vt 0.044056 0.936154
vt 0.046541 0.930282
vt 0.050981 0.925703
vt 0.056774 0.923038
vt 0.063139 0.922645
vt 0.069216 0.924578
vt 0.074185 0.928576
vt 0.077374 0.934099
vt 0.078352 0.940401
vt 0.067217 0.945910
vt 0.068980 0.943259
vt 0.064614 0.947745
vt 0.061525 0.948516
vt 0.058365 0.948119
vt 0.055563 0.946608
vt 0.053495 0.944186
vt 0.052442 0.941180
vt 0.052546 0.937998
vt 0.053793 0.935067
vt 0.056013 0.932785
vt 0.058909 0.931460
vt 0.062087 0.931269
vt 0.065120 0.932240
vt 0.067597 0.934241
vt 0.069185 0.937002
vt 0.069667 0.940149
vt 0.061007 0.939867
vn 0.885626 0.183749 -0.426501
vn 0.671751 0.183749 -0.717625
vn 0.658304 0.268441 -0.703260
vn 0.867897 0.268441 -0.417964
vn 0.367153 0.183749 -0.911831
vn 0.359803 0.268441 -0.893578
vn 0.012969 0.183749 -0.982888
vn 0.012709 0.268441 -0.963212
vn -0.342967 0.183749 -0.921200
vn -0.336101 0.268441 -0.902760
vn -0.652583 0.183749 -0.735100
vn -0.639520 0.268441 -0.720385
vn -0.874064 0.183749 -0.449720
vn -0.856567 0.268441 -0.440718
vn -0.977498 0.183749 -0.103603
vn -0.957931 0.268441 -0.101529
vn -0.948916 0.183749 0.256506
vn -0.929920 0.268441 0.251371
vn -0.792177 0.183749 0.581973
vn -0.776319 0.268441 0.570323
vn -0.528450 0.183749 0.828841
vn -0.517872 0.268441 0.812249
vn -0.193353 0.183749 0.963769
vn -0.189483 0.268441 0.944476
vn 0.167857 0.183749 0.968535
vn 0.164497 0.268441 0.949147
vn 0.506397 0.183749 0.842495
vn 0.496260 0.268441 0.825630
vn 0.776546 0.183749 0.602672
vn 0.761001 0.268441 0.590607
vn 0.941817 0.183749 0.281454
vn 0.922964 0.268441 0.275820
vn 0.979891 0.183749 -0.077776
vn 0.960276 0.268441 -0.076219
vn 0.614495 0.437559 -0.656459
vn 0.810140 0.437559 -0.390149
vn 0.335859 0.437559 -0.834111
vn 0.011864 0.437558 -0.899112
vn -0.313734 0.437558 -0.842682
vn -0.596960 0.437558 -0.672444
vn -0.799564 0.437559 -0.411389
vn -0.894182 0.437559 -0.094773
vn -0.868035 0.437559 0.234643
vn -0.724656 0.437559 0.532369
vn -0.483408 0.437559 0.758195
vn -0.176873 0.437559 0.881623
vn 0.153550 0.437559 0.885983
vn 0.463235 0.437559 0.770686
vn 0.710357 0.437559 0.551303
vn 0.861542 0.437559 0.257464
vn 0.896371 0.437559 -0.071147
vn 0.550660 0.592214 -0.588265
vn 0.725981 0.592214 -0.349619
vn 0.300969 0.592214 -0.747462
vn 0.010631 0.592214 -0.805710
vn -0.281143 0.592214 -0.755143
vn -0.534947 0.592214 -0.602589
vn -0.716504 0.592214 -0.368653
vn -0.801292 0.592214 -0.084927
vn -0.777862 0.592214 0.210268
vn -0.649378 0.592214 0.477065
vn -0.433191 0.592214 0.679432
vn -0.158499 0.592214 0.790038
vn 0.137599 0.592214 0.793945
vn 0.415113 0.592214 0.690625
vn 0.636564 0.592214 0.494033
vn 0.772044 0.592214 0.230718
vn 0.803254 0.592214 -0.063756
vn 0.469075 0.727227 -0.501108
vn 0.618420 0.727227 -0.297820
vn 0.256378 0.727227 -0.636719
vn 0.009056 0.727227 -0.686337
vn -0.239489 0.727227 -0.643262
vn -0.455690 0.727227 -0.513310
vn -0.610347 0.727227 -0.314034
vn -0.682574 0.727227 -0.072345
vn -0.662615 0.727227 0.179115
vn -0.553166 0.727227 0.406384
vn -0.369010 0.727227 0.578768
vn -0.135016 0.727227 0.672987
vn 0.117212 0.727227 0.676315
vn 0.353610 0.727227 0.588303
vn 0.542251 0.727227 0.420837
vn 0.657658 0.727227 0.196535
vn 0.684245 0.727227 -0.054310
vn 0.372904 0.838000 -0.398370
vn 0.491631 0.838000 -0.236761
vn 0.203815 0.838000 -0.506178
vn 0.007199 0.838000 -0.545623
vn -0.190389 0.838000 -0.511379
vn -0.362264 0.838000 -0.408071
vn -0.485213 0.838000 -0.249650
vn -0.542631 0.838000 -0.057512
vn -0.526765 0.838000 0.142392
vn -0.439755 0.838000 0.323066
vn -0.293355 0.838000 0.460108
vn -0.107335 0.838000 0.535010
vn 0.093181 0.838000 0.537656
vn 0.281113 0.838000 0.467688
vn 0.431078 0.838000 0.334557
vn 0.522824 0.838000 0.156241
vn 0.543960 0.838000 -0.043175
vn 0.266805 0.920639 -0.285025
vn 0.351751 0.920639 -0.169397
vn 0.145825 0.920639 -0.362158
vn 0.005151 0.920639 -0.390381
vn -0.136219 0.920639 -0.365880
vn -0.259191 0.920639 -0.291965
vn -0.347159 0.920639 -0.178619
vn -0.388240 0.920639 -0.041149
vn -0.376888 0.920639 0.101879
vn -0.314635 0.920639 0.231147
vn -0.209889 0.920639 0.329197
vn -0.076796 0.920639 0.382788
vn 0.066669 0.920639 0.384681
vn 0.201130 0.920639 0.334620
vn 0.308427 0.920639 0.239368
vn 0.374069 0.920639 0.111787
vn 0.389191 0.920639 -0.030891
vn 0.161320 0.971739 -0.172337
vn 0.212682 0.971739 -0.102424
vn 0.088171 0.971739 -0.218975
vn 0.003115 0.971739 -0.236039
vn -0.082363 0.971739 -0.221225
vn -0.156717 0.971739 -0.176533
vn -0.209905 0.971739 -0.108000
vn -0.234745 0.971739 -0.024881
vn -0.227881 0.971739 0.061600
vn -0.190240 0.971739 0.139760
vn -0.126907 0.971739 0.199045
vn -0.046434 0.971739 0.231448
vn 0.040311 0.971739 0.232592
vn 0.121611 0.971739 0.202324
vn 0.186486 0.971739 0.144731
vn 0.226176 0.971739 0.067591
vn 0.235320 0.971739 -0.018678
vn -0.000000 1.000000 -0.000000
s 1
g polySurface2 pSphere1
usemtl lambert2SG
f 1/1/1 2/2/2 19/3/3 18/4/4
f 2/2/2 3/5/5 20/6/6 19/3/3
f 3/5/5 4/7/7 21/8/8 20/6/6
f 4/7/7 5/9/9 22/10/10 21/8/8
f 5/11/9 6/12/11 23/13/12 22/14/10
f 6/12/11 7/15/13 24/16/14 23/13/12
f 7/15/13 8/17/15 25/18/16 24/16/14
f 8/17/15 9/19/17 26/20/18 25/18/16
f 9/19/17 10/21/19 27/22/20 26/20/18
f 10/21/19 11/23/21 28/24/22 27/22/20
f 11/23/21 12/25/23 29/26/24 28/24/22
f 12/25/23 13/27/25 30/28/26 29/26/24
f 13/27/25 14/29/27 31/30/28 30/28/26
f 14/29/27 15/31/29 32/32/30 31/30/28
f 15/31/29 16/33/31 33/34/32 32/32/30
f 16/33/31 17/35/33 34/36/34 33/34/32
f 17/35/33 1/1/1 18/4/4 34/36/34
f 18/4/4 19/3/3 36/37/35 35/38/36
f 19/3/3 20/6/6 37/39/37 36/37/35
f 20/6/6 21/8/8 38/40/38 37/39/37
f 21/8/8 22/10/10 39/41/39 38/40/38
f 22/14/10 23/13/12 40/42/40 39/43/39
f 23/13/12 24/16/14 41/44/41 40/42/40
f 24/16/14 25/18/16 42/45/42 41/44/41
f 25/18/16 26/20/18 43/46/43 42/45/42
f 26/20/18 27/22/20 44/47/44 43/46/43
f 27/22/20 28/24/22 45/48/45 44/47/44
f 28/24/22 29/26/24 46/49/46 45/48/45
f 29/26/24 30/28/26 47/50/47 46/49/46
f 30/28/26 31/30/28 48/51/48 47/50/47
f 31/30/28 32/32/30 49/52/49 48/51/48
f 32/32/30 33/34/32 50/53/50 49/52/49
f 33/34/32 34/36/34 51/54/51 50/53/50
f 34/36/34 18/4/4 35/38/36 51/54/51
f 35/55/36 36/56/35 53/57/52 52/58/53
f 36/56/35 37/59/37 54/60/54 53/57/52
f 37/59/37 38/61/38 55/62/55 54/60/54
f 38/61/38 39/63/39 56/64/56 55/62/55
f 39/63/39 40/65/40 57/66/57 56/64/56
f 40/65/40 41/67/41 58/68/58 57/66/57
f 41/67/41 42/69/42 59/70/59 58/68/58
f 42/69/42 43/71/43 60/72/60 59/70/59
f 43/71/43 44/73/44 61/74/61 60/72/60
f 44/73/44 45/75/45 62/76/62 61/74/61
f 45/75/45 46/77/46 63/78/63 62/76/62
f 46/77/46 47/79/47 64/80/64 63/78/63
f 47/79/47 48/81/48 65/82/65 64/80/64
f 48/81/48 49/83/49 66/84/66 65/82/65
f 49/83/49 50/85/50 67/86/67 66/84/66
f 50/85/50 51/87/51 68/88/68 67/86/67
f 51/87/51 35/55/36 52/58/53 68/88/68
f 52/58/53 53/57/52 70/89/69 69/90/70
f 53/57/52 54/60/54 71/91/71 70/89/69
f 54/60/54 55/62/55 72/92/72 71/91/71
f 55/62/55 56/64/56 73/93/73 72/92/72
f 56/64/56 57/66/57 74/94/74 73/93/73
f 57/66/57 58/68/58 75/95/75 74/94/74
f 58/68/58 59/70/59 76/96/76 75/95/75
f 59/70/59 60/72/60 77/97/77 76/96/76
f 60/72/60 61/74/61 78/98/78 77/97/77
f 61/74/61 62/76/62 79/99/79 78/98/78
f 62/76/62 63/78/63 80/100/80 79/99/79
f 63/78/63 64/80/64 81/101/81 80/100/80
f 64/80/64 65/82/65 82/102/82 81/101/81
f 65/82/65 66/84/66 83/103/83 82/102/82
f 66/84/66 67/86/67 84/104/84 83/103/83
f 67/86/67 68/88/68 85/105/85 84/104/84
f 68/88/68 52/58/53 69/90/70 85/105/85
f 69/90/70 70/89/69 87/106/86 86/107/87
f 70/89/69 71/91/71 88/108/88 87/106/86
f 71/91/71 72/92/72 89/109/89 88/108/88
f 72/92/72 73/93/73 90/110/90 89/109/89
f 73/93/73 74/94/74 91/111/91 90/110/90
f 74/94/74 75/95/75 92/112/92 91/111/91
f 75/95/75 76/96/76 93/113/93 92/112/92
f 76/96/76 77/97/77 94/114/94 93/113/93
f 77/97/77 78/98/78 95/115/95 94/114/94
f 78/98/78 79/99/79 96/116/96 95/115/95
f 79/99/79 80/100/80 97/117/97 96/116/96
f 80/100/80 81/101/81 98/118/98 97/117/97
f 81/101/81 82/102/82 99/119/99 98/118/98
f 82/102/82 83/103/83 100/120/100 99/119/99
f 83/103/83 84/104/84 101/121/101 100/120/100
f 84/104/84 85/105/85 102/122/102 101/121/101
f 85/105/85 69/90/70 86/107/87 102/122/102
f 86/107/87 87/106/86 104/123/103 103/124/104
f 87/106/86 88/108/88 105/125/105 104/123/103
f 88/108/88 89/109/89 106/126/106 105/125/105
f 89/109/89 90/110/90 107/127/107 106/126/106
f 90/110/90 91/111/91 108/128/108 107/127/107
f 91/111/91 92/112/92 109/129/109 108/128/108
f 92/112/92 93/113/93 110/130/110 109/129/109
f 93/113/93 94/114/94 111/131/111 110/130/110
f 94/114/94 95/115/95 112/132/112 111/131/111
f 95/115/95 96/116/96 113/133/113 112/132/112
f 96/116/96 97/117/97 114/134/114 113/133/113
f 97/117/97 98/118/98 115/135/115 114/134/114
f 98/118/98 99/119/99 116/136/116 115/135/115
f 99/119/99 100/120/100 117/137/117 116/136/116
f 100/120/100 101/121/101 118/138/118 117/137/117
f 101/121/101 102/122/102 119/139/119 118/138/118
f 102/122/102 86/107/87 103/124/104 119/139/119
f 103/124/104 104/123/103 121/140/120 120/141/121
f 104/123/103 105/125/105 122/142/122 121/140/120
f 105/125/105 106/126/106 123/143/123 122/142/122
f 106/126/106 107/127/107 124/144/124 123/143/123
f 107/127/107 108/128/108 125/145/125 124/144/124
f 108/128/108 109/129/109 126/146/126 125/145/125
f 109/129/109 110/130/110 127/147/127 126/146/126
f 110/130/110 111/131/111 128/148/128 127/147/127
f 111/131/111 112/132/112 129/149/129 128/148/128
f 112/132/112 113/133/113 130/150/130 129/149/129
f 113/133/113 114/134/114 131/151/131 130/150/130
f 114/134/114 115/135/115 132/152/132 131/151/131
f 115/135/115 116/136/116 133/153/133 132/152/132
f 116/136/116 117/137/117 134/154/134 133/153/133
f 117/137/117 118/138/118 135/155/135 134/154/134
f 118/138/118 119/139/119 136/156/136 135/155/135
f 119/139/119 103/124/104 120/141/121 136/156/136
f 120/141/121 121/140/120 137/157/137
f 121/140/120 122/142/122 137/157/137
f 122/142/122 123/143/123 137/157/137
f 123/143/123 124/144/124 137/157/137
f 124/144/124 125/145/125 137/157/137
f 125/145/125 126/146/126 137/157/137
f 126/146/126 127/147/127 137/157/137
f 127/147/127 128/148/128 137/157/137
f 128/148/128 129/149/129 137/157/137
f 129/149/129 130/150/130 137/157/137
f 130/150/130 131/151/131 137/157/137
f 131/151/131 132/152/132 137/157/137
f 132/152/132 133/153/133 137/157/137
f 133/153/133 134/154/134 137/157/137
f 134/154/134 135/155/135 137/157/137
f 135/155/135 136/156/136 137/157/137
f 136/156/136 120/141/121 137/157/137
