# This file uses centimeters as units for non-parametric coordinates.

mtllib Cajon_Abajo.mtl
g default
v -3.429267 0.452132 -3.161639
v -3.366120 0.452132 -3.161639
v -3.429267 1.903147 -3.161639
v -3.366120 1.903147 -3.161639
v -3.429267 1.903147 -5.782771
v -3.366120 1.903147 -5.782771
v -3.429267 0.452132 -5.782771
v -3.366120 0.452132 -5.782771
v -5.073974 0.452132 -3.161639
v -5.010828 0.452132 -3.161639
v -5.073974 1.903147 -3.161639
v -5.010828 1.903147 -3.161639
v -5.073974 1.903147 -5.782771
v -5.010828 1.903147 -5.782771
v -5.073974 0.452132 -5.782771
v -5.010828 0.452132 -5.782771
v -3.429267 0.452132 -3.161639
v -3.366120 0.452132 -3.161639
v -3.429267 1.903147 -3.161639
v -3.366120 1.903147 -3.161639
v -3.429267 1.903147 -5.782771
v -3.366120 1.903147 -5.782771
v -3.429267 0.452132 -5.782771
v -3.366120 0.452132 -5.782771
v -5.060985 0.458641 -3.161639
v -3.364946 0.458641 -3.161639
v -5.060985 0.574263 -3.161639
v -3.364946 0.574263 -3.161639
v -5.060985 0.574263 -5.782771
v -3.364946 0.574263 -5.782771
v -5.060985 0.458641 -5.782771
v -3.364946 0.458641 -5.782771
v -5.060985 0.532192 -3.187942
v -3.364946 0.532192 -3.187942
v -5.060985 1.888995 -3.187942
v -3.364946 1.888995 -3.187942
v -5.060985 1.888995 -3.259792
v -3.364946 1.888995 -3.259792
v -5.060985 0.532192 -3.259792
v -3.364946 0.532192 -3.259792
v -5.067414 1.329024 -4.546390
v -5.067232 1.313227 -4.577395
v -5.066948 1.288623 -4.602001
v -5.066589 1.257620 -4.617799
v -5.066192 1.223252 -4.623243
v -5.065795 1.188885 -4.617799
v -5.065437 1.157882 -4.602001
v -5.065153 1.133277 -4.577395
v -5.064970 1.117481 -4.546390
v -5.064907 1.112037 -4.512021
v -5.064970 1.117481 -4.477651
v -5.065153 1.133277 -4.446646
v -5.065437 1.157882 -4.422040
v -5.065795 1.188885 -4.406242
v -5.066192 1.223252 -4.400798
v -5.066589 1.257620 -4.406242
v -5.066948 1.288623 -4.422040
v -5.067232 1.313227 -4.446646
v -5.067414 1.329024 -4.477651
v -5.067477 1.334467 -4.512021
v -5.289844 1.326453 -4.546390
v -5.289661 1.310657 -4.577395
v -5.289377 1.286052 -4.602001
v -5.289019 1.255049 -4.617799
v -5.288622 1.220682 -4.623243
v -5.288225 1.186314 -4.617799
v -5.287866 1.155311 -4.602001
v -5.287582 1.130707 -4.577395
v -5.287400 1.114910 -4.546390
v -5.287337 1.109467 -4.512021
v -5.287400 1.114910 -4.477651
v -5.287582 1.130707 -4.446646
v -5.287866 1.155311 -4.422040
v -5.288225 1.186314 -4.406242
v -5.288622 1.220682 -4.400798
v -5.289019 1.255049 -4.406242
v -5.289377 1.286052 -4.422040
v -5.289661 1.310657 -4.446646
v -5.289844 1.326453 -4.477651
v -5.289907 1.331897 -4.512021
v -5.066192 1.223252 -4.512021
v -5.288622 1.220682 -4.512021
v -5.060985 0.532192 -5.700703
v -3.364946 0.532192 -5.700703
v -5.060985 1.888995 -5.700703
v -3.364946 1.888995 -5.700703
v -5.060985 1.888995 -5.772552
v -3.364946 1.888995 -5.772552
v -5.060985 0.532192 -5.772552
v -3.364946 0.532192 -5.772552
vt 0.375000 0.000000
vt 0.625000 0.000000
vt 0.375000 0.250000
vt 0.625000 0.250000
vt 0.375000 0.500000
vt 0.625000 0.500000
vt 0.375000 0.750000
vt 0.625000 0.750000
vt 0.375000 1.000000
vt 0.625000 1.000000
vt 0.875000 0.000000
vt 0.875000 0.250000
vt 0.125000 0.000000
vt 0.125000 0.250000
vt 0.375000 0.000000
vt 0.625000 0.000000
vt 0.625000 0.250000
vt 0.375000 0.250000
vt 0.625000 0.500000
vt 0.375000 0.500000
vt 0.625000 0.750000
vt 0.375000 0.750000
vt 0.625000 1.000000
vt 0.375000 1.000000
vt 0.875000 0.000000
vt 0.875000 0.250000
vt 0.125000 0.000000
vt 0.125000 0.250000
vt 0.375000 0.000000
vt 0.625000 0.000000
vt 0.625000 0.250000
vt 0.375000 0.250000
vt 0.625000 0.500000
vt 0.375000 0.500000
vt 0.625000 0.750000
vt 0.375000 0.750000
vt 0.625000 1.000000
vt 0.375000 1.000000
vt 0.875000 0.000000
vt 0.875000 0.250000
vt 0.125000 0.000000
vt 0.125000 0.250000
vt 0.375000 0.000000
vt 0.625000 0.000000
vt 0.625000 0.250000
vt 0.375000 0.250000
vt 0.625000 0.500000
vt 0.375000 0.500000
vt 0.625000 0.750000
vt 0.375000 0.750000
vt 0.625000 1.000000
vt 0.375000 1.000000
vt 0.875000 0.000000
vt 0.875000 0.250000
vt 0.125000 0.000000
vt 0.125000 0.250000
vt 0.375000 0.000000
vt 0.625000 0.000000
vt 0.625000 0.250000
vt 0.375000 0.250000
vt 0.625000 0.500000
vt 0.375000 0.500000
vt 0.625000 0.750000
vt 0.375000 0.750000
vt 0.625000 1.000000
vt 0.375000 1.000000
vt 0.875000 0.000000
vt 0.875000 0.250000
vt 0.125000 0.000000
vt 0.125000 0.250000
vt 0.375000 0.312500
vt 0.387500 0.312500
vt 0.387500 0.688440
vt 0.375000 0.688440
vt 0.400000 0.312500
vt 0.400000 0.688440
vt 0.412500 0.312500
vt 0.412500 0.688440
vt 0.425000 0.312500
vt 0.425000 0.688440
vt 0.437500 0.312500
vt 0.437500 0.688440
vt 0.450000 0.312500
vt 0.450000 0.688440
vt 0.462500 0.312500
vt 0.462500 0.688440
vt 0.475000 0.312500
vt 0.475000 0.688440
vt 0.487500 0.312500
vt 0.487500 0.688440
vt 0.500000 0.312500
vt 0.500000 0.688440
vt 0.512500 0.312500
vt 0.512500 0.688440
vt 0.525000 0.312500
vt 0.525000 0.688440
vt 0.537500 0.312500
vt 0.537500 0.688440
vt 0.550000 0.312500
vt 0.550000 0.688440
vt 0.562500 0.312500
vt 0.562500 0.688440
vt 0.575000 0.312500
vt 0.575000 0.688440
vt 0.587500 0.312500
vt 0.587500 0.688440
vt 0.600000 0.312500
vt 0.600000 0.688440
vt 0.612500 0.312500
vt 0.612500 0.688440
vt 0.625000 0.312500
vt 0.625000 0.688440
vt 0.626409 0.064408
vt 0.648603 0.107966
vt 0.500000 0.150000
vt 0.591842 0.029841
vt 0.548284 0.007647
vt 0.500000 -0.000000
vt 0.451716 0.007647
vt 0.408159 0.029841
vt 0.373591 0.064409
vt 0.351397 0.107966
vt 0.343750 0.156250
vt 0.351397 0.204534
vt 0.373591 0.248091
vt 0.408159 0.282659
vt 0.451716 0.304853
vt 0.500000 0.312500
vt 0.548284 0.304853
vt 0.591841 0.282659
vt 0.626409 0.248091
vt 0.648603 0.204534
vt 0.656250 0.156250
vt 0.648603 0.892034
vt 0.626409 0.935591
vt 0.500000 0.837500
vt 0.591841 0.970159
vt 0.548284 0.992353
vt 0.500000 1.000000
vt 0.451716 0.992353
vt 0.408159 0.970159
vt 0.373591 0.935591
vt 0.351397 0.892034
vt 0.343750 0.843750
vt 0.351397 0.795466
vt 0.373591 0.751909
vt 0.408159 0.717341
vt 0.451716 0.695147
vt 0.500000 0.687500
vt 0.548284 0.695147
vt 0.591842 0.717341
vt 0.626409 0.751908
vt 0.648603 0.795466
vt 0.656250 0.843750
vt 0.375000 0.000000
vt 0.625000 0.000000
vt 0.625000 0.250000
vt 0.375000 0.250000
vt 0.625000 0.500000
vt 0.375000 0.500000
vt 0.625000 0.750000
vt 0.375000 0.750000
vt 0.625000 1.000000
vt 0.375000 1.000000
vt 0.875000 0.000000
vt 0.875000 0.250000
vt 0.125000 0.000000
vt 0.125000 0.250000
vn 0.000000 0.000000 1.000000
vn 0.000000 0.000000 1.000000
vn 0.000000 0.000000 1.000000
vn 0.000000 0.000000 1.000000
vn 0.000000 1.000000 0.000000
vn 0.000000 1.000000 0.000000
vn 0.000000 1.000000 0.000000
vn 0.000000 1.000000 0.000000
vn 0.000000 0.000000 -1.000000
vn 0.000000 0.000000 -1.000000
vn 0.000000 0.000000 -1.000000
vn 0.000000 0.000000 -1.000000
vn 0.000000 -1.000000 0.000000
vn 0.000000 -1.000000 0.000000
vn 0.000000 -1.000000 0.000000
vn 0.000000 -1.000000 0.000000
vn 1.000000 0.000000 0.000000
vn 1.000000 0.000000 0.000000
vn 1.000000 0.000000 0.000000
vn 1.000000 0.000000 0.000000
vn -1.000000 0.000000 0.000000
vn -1.000000 0.000000 0.000000
vn -1.000000 0.000000 0.000000
vn -1.000000 0.000000 0.000000
vn 0.000000 0.000000 1.000000
vn 0.000000 0.000000 1.000000
vn 0.000000 0.000000 1.000000
vn 0.000000 0.000000 1.000000
vn 0.000000 1.000000 0.000000
vn 0.000000 1.000000 0.000000
vn 0.000000 1.000000 0.000000
vn 0.000000 1.000000 0.000000
vn 0.000000 0.000000 -1.000000
vn 0.000000 0.000000 -1.000000
vn 0.000000 0.000000 -1.000000
vn 0.000000 0.000000 -1.000000
vn 0.000000 -1.000000 0.000000
vn 0.000000 -1.000000 0.000000
vn 0.000000 -1.000000 0.000000
vn 0.000000 -1.000000 0.000000
vn 1.000000 0.000000 0.000000
vn 1.000000 0.000000 0.000000
vn 1.000000 0.000000 0.000000
vn 1.000000 0.000000 0.000000
vn -1.000000 0.000000 0.000000
vn -1.000000 0.000000 0.000000
vn -1.000000 0.000000 0.000000
vn -1.000000 0.000000 0.000000
vn 0.000000 0.000000 1.000000
vn 0.000000 0.000000 1.000000
vn 0.000000 0.000000 1.000000
vn 0.000000 0.000000 1.000000
vn 0.000000 1.000000 0.000000
vn 0.000000 1.000000 0.000000
vn 0.000000 1.000000 0.000000
vn 0.000000 1.000000 0.000000
vn 0.000000 0.000000 -1.000000
vn 0.000000 0.000000 -1.000000
vn 0.000000 0.000000 -1.000000
vn 0.000000 0.000000 -1.000000
vn 0.000000 -1.000000 0.000000
vn 0.000000 -1.000000 0.000000
vn 0.000000 -1.000000 0.000000
vn 0.000000 -1.000000 0.000000
vn 1.000000 0.000000 0.000000
vn 1.000000 0.000000 0.000000
vn 1.000000 0.000000 0.000000
vn 1.000000 0.000000 0.000000
vn -1.000000 0.000000 0.000000
vn -1.000000 0.000000 0.000000
vn -1.000000 0.000000 0.000000
vn -1.000000 0.000000 0.000000
vn 0.000000 0.000000 1.000000
vn 0.000000 0.000000 1.000000
vn 0.000000 0.000000 1.000000
vn 0.000000 0.000000 1.000000
vn 0.000000 1.000000 0.000000
vn 0.000000 1.000000 0.000000
vn 0.000000 1.000000 0.000000
vn 0.000000 1.000000 0.000000
vn 0.000000 0.000000 -1.000000
vn 0.000000 0.000000 -1.000000
vn 0.000000 0.000000 -1.000000
vn 0.000000 0.000000 -1.000000
vn 0.000000 -1.000000 0.000000
vn 0.000000 -1.000000 0.000000
vn 0.000000 -1.000000 0.000000
vn 0.000000 -1.000000 0.000000
vn 1.000000 0.000000 0.000000
vn 1.000000 0.000000 0.000000
vn 1.000000 0.000000 0.000000
vn 1.000000 0.000000 0.000000
vn -1.000000 0.000000 0.000000
vn -1.000000 0.000000 0.000000
vn -1.000000 0.000000 0.000000
vn -1.000000 0.000000 0.000000
vn 0.000000 0.000000 1.000000
vn 0.000000 0.000000 1.000000
vn 0.000000 0.000000 1.000000
vn 0.000000 0.000000 1.000000
vn 0.000000 1.000000 0.000000
vn 0.000000 1.000000 0.000000
vn 0.000000 1.000000 0.000000
vn 0.000000 1.000000 0.000000
vn 0.000000 0.000000 -1.000000
vn 0.000000 0.000000 -1.000000
vn 0.000000 0.000000 -1.000000
vn 0.000000 0.000000 -1.000000
vn 0.000000 -1.000000 0.000000
vn 0.000000 -1.000000 0.000000
vn 0.000000 -1.000000 0.000000
vn 0.000000 -1.000000 0.000000
vn 1.000000 0.000000 0.000000
vn 1.000000 0.000000 0.000000
vn 1.000000 0.000000 0.000000
vn 1.000000 0.000000 0.000000
vn -1.000000 0.000000 0.000000
vn -1.000000 0.000000 0.000000
vn -1.000000 0.000000 0.000000
vn -1.000000 0.000000 0.000000
vn -0.010990 0.950993 -0.309017
vn -0.009349 0.808963 -0.587786
vn -0.009349 0.808963 -0.587786
vn -0.010990 0.950993 -0.309017
vn -0.006792 0.587747 -0.809017
vn -0.006792 0.587746 -0.809017
vn -0.003571 0.308999 -0.951056
vn -0.003571 0.308999 -0.951056
vn -0.000000 -0.000000 -1.000000
vn -0.000000 0.000000 -1.000000
vn 0.003570 -0.308997 -0.951056
vn 0.003570 -0.308997 -0.951056
vn 0.006792 -0.587744 -0.809018
vn 0.006792 -0.587745 -0.809018
vn 0.009348 -0.808964 -0.587784
vn 0.009348 -0.808964 -0.587784
vn 0.010990 -0.950994 -0.309015
vn 0.010990 -0.950993 -0.309016
vn 0.011555 -0.999933 0.000000
vn 0.011555 -0.999933 0.000000
vn 0.010990 -0.950994 0.309014
vn 0.010990 -0.950994 0.309014
vn 0.009349 -0.808965 0.587783
vn 0.009349 -0.808965 0.587783
vn 0.006792 -0.587744 0.809018
vn 0.006792 -0.587745 0.809018
vn 0.003571 -0.308997 0.951056
vn 0.003571 -0.308997 0.951056
vn 0.000000 -0.000000 1.000000
vn 0.000000 0.000000 1.000000
vn -0.003570 0.308999 0.951056
vn -0.003570 0.308999 0.951056
vn -0.006792 0.587747 0.809017
vn -0.006792 0.587746 0.809017
vn -0.009348 0.808963 0.587786
vn -0.009348 0.808963 0.587786
vn -0.010990 0.950993 0.309017
vn -0.010990 0.950993 0.309017
vn -0.011555 0.999933 0.000000
vn -0.011555 0.999933 0.000000
vn 0.999933 0.011570 -0.000005
vn 0.999933 0.011538 -0.000003
vn 0.999933 0.011557 0.000000
vn 0.999933 0.011570 0.000002
vn 0.999933 0.011538 0.000003
vn 0.999933 0.011570 0.000000
vn 0.999933 0.011570 0.000005
vn 0.999933 0.011539 0.000006
vn 0.999933 0.011554 -0.000006
vn 0.999933 0.011562 -0.000007
vn 0.999933 0.011554 0.000000
vn 0.999933 0.011562 0.000007
vn 0.999933 0.011554 0.000006
vn 0.999933 0.011539 -0.000006
vn 0.999933 0.011601 -0.000005
vn 0.999933 0.011601 0.000000
vn 0.999933 0.011538 -0.000003
vn 0.999933 0.011554 -0.000002
vn 0.999933 0.011554 0.000005
vn 0.999933 0.011538 0.000003
vn 0.999933 0.011538 0.000000
vn -0.999933 -0.011562 -0.000007
vn -0.999933 -0.011554 -0.000006
vn -0.999933 -0.011556 0.000000
vn -0.999933 -0.011539 0.000006
vn -0.999933 -0.011570 0.000005
vn -0.999933 -0.011570 0.000000
vn -0.999933 -0.011570 0.000003
vn -0.999933 -0.011570 0.000002
vn -0.999933 -0.011538 -0.000005
vn -0.999933 -0.011538 -0.000003
vn -0.999933 -0.011538 0.000000
vn -0.999933 -0.011546 0.000003
vn -0.999933 -0.011546 0.000005
vn -0.999933 -0.011570 -0.000002
vn -0.999933 -0.011569 -0.000003
vn -0.999933 -0.011570 0.000000
vn -0.999933 -0.011569 -0.000005
vn -0.999933 -0.011539 -0.000006
vn -0.999933 -0.011554 0.000006
vn -0.999933 -0.011562 0.000007
vn -0.999933 -0.011554 0.000000
vn 0.000000 0.000000 1.000000
vn 0.000000 0.000000 1.000000
vn 0.000000 0.000000 1.000000
vn 0.000000 0.000000 1.000000
vn 0.000000 1.000000 0.000000
vn 0.000000 1.000000 0.000000
vn 0.000000 1.000000 0.000000
vn 0.000000 1.000000 0.000000
vn 0.000000 0.000000 -1.000000
vn 0.000000 0.000000 -1.000000
vn 0.000000 0.000000 -1.000000
vn 0.000000 0.000000 -1.000000
vn 0.000000 -1.000000 0.000000
vn 0.000000 -1.000000 0.000000
vn 0.000000 -1.000000 0.000000
vn 0.000000 -1.000000 0.000000
vn 1.000000 0.000000 0.000000
vn 1.000000 0.000000 0.000000
vn 1.000000 0.000000 0.000000
vn 1.000000 0.000000 0.000000
vn -1.000000 0.000000 0.000000
vn -1.000000 0.000000 0.000000
vn -1.000000 0.000000 0.000000
vn -1.000000 0.000000 0.000000
s off
g group2_pasted__group_pasted__pasted__pCube1
usemtl lambert2SG
f 1/1/1 2/2/2 4/4/3 3/3/4
f 3/3/5 4/4/6 6/6/7 5/5/8
f 5/5/9 6/6/10 8/8/11 7/7/12
f 7/7/13 8/8/14 2/10/15 1/9/16
f 2/2/17 8/11/18 6/12/19 4/4/20
f 7/13/21 1/1/22 3/3/23 5/14/24
f 9/15/25 10/16/26 12/17/27 11/18/28
f 11/18/29 12/17/30 14/19/31 13/20/32
f 13/20/33 14/19/34 16/21/35 15/22/36
f 15/22/37 16/21/38 10/23/39 9/24/40
f 10/16/41 16/25/42 14/26/43 12/17/44
f 15/27/45 9/15/46 11/18/47 13/28/48
f 17/29/49 18/30/50 20/31/51 19/32/52
f 19/32/53 20/31/54 22/33/55 21/34/56
f 21/34/57 22/33/58 24/35/59 23/36/60
f 23/36/61 24/35/62 18/37/63 17/38/64
f 18/30/65 24/39/66 22/40/67 20/31/68
f 23/41/69 17/29/70 19/32/71 21/42/72
f 25/43/73 26/44/74 28/45/75 27/46/76
f 27/46/77 28/45/78 30/47/79 29/48/80
f 29/48/81 30/47/82 32/49/83 31/50/84
f 31/50/85 32/49/86 26/51/87 25/52/88
f 26/44/89 32/53/90 30/54/91 28/45/92
f 31/55/93 25/43/94 27/46/95 29/56/96
f 33/57/97 34/58/98 36/59/99 35/60/100
f 35/60/101 36/59/102 38/61/103 37/62/104
f 37/62/105 38/61/106 40/63/107 39/64/108
f 39/64/109 40/63/110 34/65/111 33/66/112
f 34/58/113 40/67/114 38/68/115 36/59/116
f 39/69/117 33/57/118 35/60/119 37/70/120
s 1
f 41/71/121 42/72/122 62/73/123 61/74/124
f 42/72/122 43/75/125 63/76/126 62/73/123
f 43/75/125 44/77/127 64/78/128 63/76/126
f 44/77/127 45/79/129 65/80/130 64/78/128
f 45/79/129 46/81/131 66/82/132 65/80/130
f 46/81/131 47/83/133 67/84/134 66/82/132
f 47/83/133 48/85/135 68/86/136 67/84/134
f 48/85/135 49/87/137 69/88/138 68/86/136
f 49/87/137 50/89/139 70/90/140 69/88/138
f 50/89/139 51/91/141 71/92/142 70/90/140
f 51/91/141 52/93/143 72/94/144 71/92/142
f 52/93/143 53/95/145 73/96/146 72/94/144
f 53/95/145 54/97/147 74/98/148 73/96/146
f 54/97/147 55/99/149 75/100/150 74/98/148
f 55/99/149 56/101/151 76/102/152 75/100/150
f 56/101/151 57/103/153 77/104/154 76/102/152
f 57/103/153 58/105/155 78/106/156 77/104/154
f 58/105/155 59/107/157 79/108/158 78/106/156
f 59/107/157 60/109/159 80/110/160 79/108/158
f 60/109/159 41/111/121 61/112/124 80/110/160
s 2
f 42/113/161 41/114/162 81/115/163
f 43/116/164 42/113/161 81/115/163
f 44/117/165 43/116/164 81/115/163
f 45/118/166 44/117/165 81/115/163
f 46/119/167 45/118/166 81/115/163
f 47/120/168 46/119/167 81/115/163
f 48/121/169 47/120/168 81/115/163
f 49/122/170 48/121/169 81/115/163
f 50/123/171 49/122/170 81/115/163
f 51/124/172 50/123/171 81/115/163
f 52/125/173 51/124/172 81/115/163
f 53/126/174 52/125/173 81/115/163
f 54/127/175 53/126/174 81/115/163
f 55/128/176 54/127/175 81/115/163
f 56/129/177 55/128/176 81/115/163
f 57/130/178 56/129/177 81/115/163
f 58/131/179 57/130/178 81/115/163
f 59/132/180 58/131/179 81/115/163
f 60/133/181 59/132/180 81/115/163
f 41/114/162 60/133/181 81/115/163
s 3
f 61/134/182 62/135/183 82/136/184
f 62/135/183 63/137/185 82/136/184
f 63/137/185 64/138/186 82/136/184
f 64/138/186 65/139/187 82/136/184
f 65/139/187 66/140/188 82/136/184
f 66/140/188 67/141/189 82/136/184
f 67/141/189 68/142/190 82/136/184
f 68/142/190 69/143/191 82/136/184
f 69/143/191 70/144/192 82/136/184
f 70/144/192 71/145/193 82/136/184
f 71/145/193 72/146/194 82/136/184
f 72/146/194 73/147/195 82/136/184
f 73/147/195 74/148/196 82/136/184
f 74/148/196 75/149/197 82/136/184
f 75/149/197 76/150/198 82/136/184
f 76/150/198 77/151/199 82/136/184
f 77/151/199 78/152/200 82/136/184
f 78/152/200 79/153/201 82/136/184
f 79/153/201 80/154/202 82/136/184
f 80/154/202 61/134/182 82/136/184
s off
f 83/155/203 84/156/204 86/157/205 85/158/206
f 85/158/207 86/157/208 88/159/209 87/160/210
f 87/160/211 88/159/212 90/161/213 89/162/214
f 89/162/215 90/161/216 84/163/217 83/164/218
f 84/156/219 90/165/220 88/166/221 86/157/222
f 89/167/223 83/155/224 85/158/225 87/168/226
