# This file uses centimeters as units for non-parametric coordinates.

mtllib CajaJuguetesTapa.mtl
g default
v -1.602679 2.674538 1.306447
v -1.615428 2.674538 0.552232
v -1.602679 2.750054 1.306447
v -1.615428 2.750054 0.552232
v -1.623346 2.750054 1.306796
v -1.636095 2.750054 0.552581
v -1.623346 2.674538 1.306796
v -1.636095 2.674538 0.552581
v -1.601074 2.675075 1.305271
v -1.601400 2.675075 1.286015
v -1.601074 2.747729 1.305271
v -1.601400 2.747729 1.286015
v -2.075151 2.747729 1.313284
v -2.075477 2.747729 1.294028
v -2.075151 2.675075 1.313284
v -2.075477 2.675075 1.294028
v -1.613449 2.675075 0.573187
v -1.613774 2.675075 0.553932
v -1.613449 2.747729 0.573187
v -1.613774 2.747729 0.553932
v -2.087526 2.747729 0.581201
v -2.087851 2.747729 0.561945
v -2.087526 2.675075 0.581201
v -2.087851 2.675075 0.561945
v -1.601055 2.733345 1.306419
v -1.613803 2.733345 0.552204
v -1.601055 2.751722 1.306419
v -1.613803 2.751722 0.552204
v -2.075132 2.751722 1.314433
v -2.087880 2.751722 0.560218
v -2.075132 2.733345 1.314433
v -2.087880 2.733345 0.560218
v -2.052700 2.674538 1.314053
v -2.065448 2.674538 0.559839
v -2.052700 2.750054 1.314053
v -2.065448 2.750054 0.559839
v -2.073367 2.750054 1.314403
v -2.086116 2.750054 0.560188
v -2.073367 2.674538 1.314403
v -2.086116 2.674538 0.560188
vt 0.469862 0.379447
vt 0.530138 0.379447
vt 0.469862 0.439723
vt 0.530138 0.439723
vt 0.822872 0.053694
vt 0.530138 0.500000
vt 0.469862 0.560277
vt 0.883148 0.113971
vt 0.469862 0.620553
vt 0.530138 0.620553
vt 0.590415 0.379447
vt 0.590415 0.439723
vt 0.409585 0.379447
vt 0.409585 0.439723
vt 0.469862 0.379447
vt 0.530138 0.379447
vt 0.808476 0.199208
vt 0.469862 0.439723
vt 0.530138 0.500000
vt 0.469862 0.500000
vt 0.530138 0.560277
vt 0.469862 0.560277
vt 0.530138 0.620553
vt 0.469862 0.620553
vt 0.861764 0.145920
vt 0.861764 0.199208
vt 0.409585 0.379447
vt 0.409585 0.439723
vt 0.921210 0.205463
vt 0.530138 0.379447
vt 0.530138 0.439723
vt 0.469862 0.439723
vt 0.530138 0.500000
vt 0.469862 0.500000
vt 0.530138 0.560277
vt 0.469862 0.560277
vt 0.530138 0.620553
vt 0.469862 0.620553
vt 0.590415 0.379447
vt 0.590415 0.439723
vt 0.860934 0.205463
vt 0.860934 0.265740
vt 0.469862 0.379447
vt 0.530138 0.379447
vt 0.530138 0.439723
vt 0.469862 0.439723
vt 0.530138 0.500000
vt 0.469862 0.500000
vt 0.530138 0.560277
vt 0.747227 0.212310
vt 0.807503 0.272586
vt 0.747227 0.272586
vt 0.590415 0.379447
vt 0.590415 0.439723
vt 0.409585 0.379447
vt 0.409585 0.439723
vt 0.469862 0.379447
vt 0.774724 0.102082
vt 0.530138 0.439723
vt 0.469862 0.439723
vt 0.530138 0.500000
vt 0.469862 0.500000
vt 0.530138 0.560277
vt 0.469862 0.560277
vt 0.530138 0.620553
vt 0.469862 0.620553
vt 0.590415 0.379447
vt 0.590415 0.439723
vt 0.409585 0.379447
vt 0.409585 0.439723
vt 0.530138 0.560277
vt 0.530138 0.379447
vt 0.469862 0.560277
vt 0.714447 0.102082
vt 0.530138 0.500000
vt 0.469862 0.500000
vt 0.774724 0.162358
vt 0.530138 0.439723
vt 0.714447 0.162358
vt 0.469862 0.439723
vt 0.807503 0.212310
vt 0.530138 0.379447
vt 0.469862 0.560277
vt 0.469862 0.379447
vt 0.530138 0.500000
vt 0.469862 0.500000
vt 0.530138 0.439723
vt 0.530138 0.439723
vt 0.469862 0.439723
vt 0.469862 0.439723
vt 0.530138 0.560277
vt 0.530138 0.379447
vt 0.469862 0.560277
vt 0.469862 0.379447
vt 0.530138 0.500000
vt 0.469862 0.500000
vt 0.530138 0.439723
vt 0.530138 0.439723
vt 0.469862 0.439723
vt 0.921210 0.265740
vt 0.530138 0.560277
vt 0.808476 0.145920
vt 0.469862 0.560277
vt 0.469862 0.379447
vt 0.530138 0.500000
vt 0.469862 0.500000
vt 0.530138 0.439723
vt 0.530138 0.439723
vt 0.469862 0.439723
vt 0.469862 0.439723
vt 0.530138 0.560277
vt 0.530138 0.379447
vt 0.822872 0.113971
vt 0.469862 0.379447
vt 0.883148 0.053694
vt 0.469862 0.500000
vt 0.530138 0.439723
vt 0.530138 0.439723
vt 0.469862 0.439723
vt 0.469862 0.439723
vn 0.999857 0.000000 -0.016901
vn 0.999857 0.000000 -0.016901
vn 0.999857 0.000000 -0.016901
vn 0.999857 0.000000 -0.016901
vn 0.000000 1.000000 -0.000000
vn 0.000000 1.000000 -0.000000
vn 0.000000 1.000000 -0.000000
vn 0.000000 1.000000 -0.000000
vn -0.999857 0.000000 0.016901
vn -0.999857 0.000000 0.016901
vn -0.999857 0.000000 0.016901
vn -0.999857 0.000000 0.016901
vn 0.000000 -1.000000 0.000000
vn 0.000000 -1.000000 0.000000
vn 0.000000 -1.000000 0.000000
vn 0.000000 -1.000000 0.000000
vn -0.016901 0.000000 -0.999857
vn -0.016901 0.000000 -0.999857
vn -0.016901 0.000000 -0.999857
vn -0.016901 0.000000 -0.999857
vn 0.016901 0.000000 0.999857
vn 0.016901 0.000000 0.999857
vn 0.016901 0.000000 0.999857
vn 0.016901 0.000000 0.999857
vn 0.999857 0.000000 -0.016901
vn 0.999857 0.000000 -0.016901
vn 0.999857 0.000000 -0.016901
vn 0.999857 0.000000 -0.016901
vn 0.000000 1.000000 -0.000000
vn 0.000000 1.000000 -0.000000
vn 0.000000 1.000000 -0.000000
vn 0.000000 1.000000 -0.000000
vn -0.999857 0.000000 0.016901
vn -0.999857 0.000000 0.016901
vn -0.999857 0.000000 0.016901
vn -0.999857 0.000000 0.016901
vn 0.000000 -1.000000 0.000000
vn 0.000000 -1.000000 0.000000
vn 0.000000 -1.000000 0.000000
vn 0.000000 -1.000000 0.000000
vn -0.016901 0.000000 -0.999857
vn -0.016901 0.000000 -0.999857
vn -0.016901 0.000000 -0.999857
vn -0.016901 0.000000 -0.999857
vn 0.016901 0.000000 0.999857
vn 0.016901 0.000000 0.999857
vn 0.016901 0.000000 0.999857
vn 0.016901 0.000000 0.999857
vn 0.999857 0.000000 -0.016901
vn 0.999857 0.000000 -0.016901
vn 0.999857 0.000000 -0.016901
vn 0.999857 0.000000 -0.016901
vn 0.000000 1.000000 -0.000000
vn 0.000000 1.000000 -0.000000
vn 0.000000 1.000000 -0.000000
vn 0.000000 1.000000 -0.000000
vn -0.999857 0.000000 0.016901
vn -0.999857 0.000000 0.016901
vn -0.999857 0.000000 0.016901
vn -0.999857 0.000000 0.016901
vn 0.000000 -1.000000 0.000000
vn 0.000000 -1.000000 0.000000
vn 0.000000 -1.000000 0.000000
vn 0.000000 -1.000000 0.000000
vn -0.016901 0.000000 -0.999857
vn -0.016901 0.000000 -0.999857
vn -0.016901 0.000000 -0.999857
vn -0.016901 0.000000 -0.999857
vn 0.016901 0.000000 0.999857
vn 0.016901 0.000000 0.999857
vn 0.016901 0.000000 0.999857
vn 0.016901 0.000000 0.999857
vn 0.999857 0.000000 -0.016901
vn 0.999857 0.000000 -0.016901
vn 0.999857 0.000000 -0.016901
vn 0.999857 0.000000 -0.016901
vn 0.000000 1.000000 -0.000000
vn 0.000000 1.000000 -0.000000
vn 0.000000 1.000000 -0.000000
vn 0.000000 1.000000 -0.000000
vn -0.999857 0.000000 0.016901
vn -0.999857 0.000000 0.016901
vn -0.999857 0.000000 0.016901
vn -0.999857 0.000000 0.016901
vn 0.000000 -1.000000 0.000000
vn 0.000000 -1.000000 0.000000
vn 0.000000 -1.000000 0.000000
vn 0.000000 -1.000000 0.000000
vn -0.016901 0.000000 -0.999857
vn -0.016901 0.000000 -0.999857
vn -0.016901 0.000000 -0.999857
vn -0.016901 0.000000 -0.999857
vn 0.016901 0.000000 0.999857
vn 0.016901 0.000000 0.999857
vn 0.016901 0.000000 0.999857
vn 0.016901 0.000000 0.999857
vn 0.999857 0.000000 -0.016901
vn 0.999857 0.000000 -0.016901
vn 0.999857 0.000000 -0.016901
vn 0.999857 0.000000 -0.016901
vn 0.000000 1.000000 -0.000000
vn 0.000000 1.000000 -0.000000
vn 0.000000 1.000000 -0.000000
vn 0.000000 1.000000 -0.000000
vn -0.999857 0.000000 0.016901
vn -0.999857 0.000000 0.016901
vn -0.999857 0.000000 0.016901
vn -0.999857 0.000000 0.016901
vn 0.000000 -1.000000 0.000000
vn 0.000000 -1.000000 0.000000
vn 0.000000 -1.000000 0.000000
vn 0.000000 -1.000000 0.000000
vn -0.016901 0.000000 -0.999857
vn -0.016901 0.000000 -0.999857
vn -0.016901 0.000000 -0.999857
vn -0.016901 0.000000 -0.999857
vn 0.016901 0.000000 0.999857
vn 0.016901 0.000000 0.999857
vn 0.016901 0.000000 0.999857
vn 0.016901 0.000000 0.999857
s off
g pasted__group5_pasted__group4_pasted__pasted__group_pasted__pasted__pasted__pCube1 group79
usemtl pasted__lambert3SG1
f 1/114/1 2/2/2 4/117/3 3/119/4
f 3/3/5 4/118/6 6/6/7 5/116/8
f 5/5/9 6/115/10 8/8/11 7/113/12
f 7/7/13 8/111/14 2/10/15 1/9/16
f 2/112/17 8/11/18 6/12/19 4/4/20
f 7/13/21 1/1/22 3/120/23 5/14/24
f 9/104/25 10/16/26 12/107/27 11/109/28
f 11/18/29 12/108/30 14/19/31 13/106/32
f 13/20/33 14/105/34 16/21/35 15/103/36
f 15/22/37 16/101/38 10/23/39 9/24/40
f 10/102/41 16/25/42 14/26/43 12/17/44
f 15/27/45 9/15/46 11/110/47 13/28/48
f 17/94/49 18/30/50 20/97/51 19/99/52
f 19/32/53 20/98/54 22/33/55 21/96/56
f 21/34/57 22/95/58 24/35/59 23/93/60
f 23/36/61 24/91/62 18/37/63 17/38/64
f 18/92/65 24/39/66 22/40/67 20/31/68
f 23/41/69 17/29/70 19/100/71 21/42/72
f 25/84/73 26/44/74 28/87/75 27/89/76
f 27/46/77 28/88/78 30/47/79 29/86/80
f 29/48/81 30/85/82 32/49/83 31/83/84
f 31/50/85 32/81/86 26/51/87 25/52/88
f 26/82/89 32/53/90 30/54/91 28/45/92
f 31/55/93 25/43/94 27/90/95 29/56/96
f 33/74/97 34/58/98 36/77/99 35/79/100
f 35/60/101 36/78/102 38/61/103 37/76/104
f 37/62/105 38/75/106 40/63/107 39/73/108
f 39/64/109 40/71/110 34/65/111 33/66/112
f 34/72/113 40/67/114 38/68/115 36/59/116
f 39/69/117 33/57/118 35/80/119 37/70/120
