# This file uses centimeters as units for non-parametric coordinates.

mtllib RoperoPuertaDerecha2.mtl
g default
v 0.404608 -0.621402 0.003093
v 0.404608 -0.621402 -0.005063
v 0.404608 0.564277 0.003093
v 0.404608 0.564277 -0.005063
v -0.001153 0.564277 0.003093
v -0.001153 0.564277 -0.005063
v -0.001153 -0.621402 0.003093
v -0.001153 -0.621402 -0.005063
vt 0.295105 0.256991
vt 0.398412 0.256991
vt 0.398412 0.360298
vt 0.295105 0.360298
vt 0.295105 0.360298
vt 0.398412 0.360298
vt 0.398412 0.463605
vt 0.295105 0.463605
vt 0.295105 0.463605
vt 0.398412 0.463605
vt 0.398412 0.566912
vt 0.295105 0.566912
vt 0.295105 0.566912
vt 0.398412 0.566912
vt 0.398412 0.670219
vt 0.295105 0.670219
vt 0.581173 0.034247
vt 0.931924 0.034247
vt 0.931924 0.954653
vt 0.581173 0.954653
vt 0.191798 0.256991
vt 0.295105 0.256991
vt 0.295105 0.360298
vt 0.191798 0.360298
vn 1.000000 0.000000 0.000000
vn 1.000000 0.000000 0.000000
vn 1.000000 0.000000 0.000000
vn 1.000000 0.000000 0.000000
vn 0.000000 1.000000 0.000000
vn 0.000000 1.000000 0.000000
vn 0.000000 1.000000 0.000000
vn 0.000000 1.000000 0.000000
vn -1.000000 0.000000 -0.000000
vn -1.000000 0.000000 -0.000000
vn -1.000000 0.000000 -0.000000
vn -1.000000 0.000000 -0.000000
vn 0.000000 -1.000000 0.000000
vn 0.000000 -1.000000 0.000000
vn 0.000000 -1.000000 0.000000
vn 0.000000 -1.000000 0.000000
vn 0.000000 0.000000 -1.000000
vn 0.000000 0.000000 -1.000000
vn 0.000000 0.000000 -1.000000
vn 0.000000 0.000000 -1.000000
vn 0.000000 0.000000 1.000000
vn 0.000000 0.000000 1.000000
vn 0.000000 0.000000 1.000000
vn 0.000000 0.000000 1.000000
s off
g RoperoPuertaDerecha:pasted__pasted__pasted__pCube1pasted__pasted__grouppasted__group1group105
usemtl RoperoPuertaDerecha:pasted__lambert2SG5
f 1/1/1 2/2/2 4/3/3 3/4/4
f 3/5/5 4/6/6 6/7/7 5/8/8
f 5/9/9 6/10/10 8/11/11 7/12/12
f 7/13/13 8/14/14 2/15/15 1/16/16
f 2/17/17 8/18/18 6/19/19 4/20/20
f 7/21/21 1/22/22 3/23/23 5/24/24
