# This file uses centimeters as units for non-parametric coordinates.

mtllib RoperoPuertaDerecha.mtl
g default
v -0.991388 2.394610 1.873374
v -0.991388 2.394610 1.865218
v -0.991388 3.580289 1.873374
v -0.991388 3.580289 1.865218
v -1.397149 3.580289 1.873374
v -1.397149 3.580289 1.865218
v -1.397149 2.394610 1.873374
v -1.397149 2.394610 1.865218
vt 0.295105 0.256991
vt 0.398412 0.256991
vt 0.295105 0.360298
vt 0.581173 0.954653
vt 0.295105 0.463605
vt 0.398412 0.463605
vt 0.295105 0.566912
vt 0.398412 0.566912
vt 0.295105 0.670219
vt 0.398412 0.670219
vt 0.931924 0.034247
vt 0.931924 0.954653
vt 0.191798 0.256991
vt 0.191798 0.360298
vt 0.398412 0.566912
vt 0.581173 0.034247
vt 0.295105 0.566912
vt 0.295105 0.256991
vt 0.398412 0.463605
vt 0.295105 0.463605
vt 0.398412 0.360298
vt 0.398412 0.360298
vt 0.295105 0.360298
vt 0.295105 0.360298
vn 1.000000 0.000000 0.000000
vn 1.000000 0.000000 0.000000
vn 1.000000 0.000000 0.000000
vn 1.000000 0.000000 0.000000
vn 0.000000 1.000000 0.000000
vn 0.000000 1.000000 0.000000
vn 0.000000 1.000000 0.000000
vn 0.000000 1.000000 0.000000
vn -1.000000 0.000000 -0.000000
vn -1.000000 0.000000 -0.000000
vn -1.000000 0.000000 -0.000000
vn -1.000000 0.000000 -0.000000
vn 0.000000 -1.000000 0.000000
vn 0.000000 -1.000000 0.000000
vn 0.000000 -1.000000 0.000000
vn 0.000000 -1.000000 0.000000
vn 0.000000 0.000000 -1.000000
vn 0.000000 0.000000 -1.000000
vn 0.000000 0.000000 -1.000000
vn 0.000000 0.000000 -1.000000
vn 0.000000 0.000000 1.000000
vn 0.000000 0.000000 1.000000
vn 0.000000 0.000000 1.000000
vn 0.000000 0.000000 1.000000
s off
g pasted__pasted__pasted__pCube1 pasted__pasted__group pasted__group1 group105
usemtl pasted__lambert2SG5
f 1/18/1 2/2/2 4/21/3 3/23/4
f 3/3/5 4/22/6 6/6/7 5/20/8
f 5/5/9 6/19/10 8/8/11 7/17/12
f 7/7/13 8/15/14 2/10/15 1/9/16
f 2/16/17 8/11/18 6/12/19 4/4/20
f 7/13/21 1/1/22 3/24/23 5/14/24
