# This file uses centimeters as units for non-parametric coordinates.

mtllib RoperoPuertaIzquierda2.mtl
g default
v -0.003230 -0.814796 0.005943
v -0.003230 -0.814796 -0.002447
v -0.003230 0.355650 0.005943
v -0.003230 0.355650 -0.002447
v -0.403965 0.355650 0.005943
v -0.403965 0.355650 -0.002447
v -0.403965 -0.814796 0.005943
v -0.403965 -0.814796 -0.002447
vt 0.297528 0.291585
vt 0.411313 0.291585
vt 0.411313 0.405370
vt 0.297528 0.405370
vt 0.297528 0.405370
vt 0.411313 0.405370
vt 0.411313 0.519155
vt 0.297528 0.519155
vt 0.297528 0.519155
vt 0.411313 0.519155
vt 0.411313 0.632940
vt 0.297528 0.632940
vt 0.297528 0.632940
vt 0.411313 0.632940
vt 0.411313 0.746726
vt 0.297528 0.746726
vt 0.068507 0.032814
vt 0.427813 0.032223
vt 0.429333 0.955307
vt 0.070027 0.955898
vt 0.183743 0.291585
vt 0.297528 0.291585
vt 0.297528 0.405370
vt 0.183743 0.405370
vn 1.000000 0.000000 0.000000
vn 1.000000 0.000000 0.000000
vn 1.000000 0.000000 0.000000
vn 1.000000 0.000000 0.000000
vn 0.000000 1.000000 0.000000
vn 0.000000 1.000000 0.000000
vn 0.000000 1.000000 0.000000
vn 0.000000 1.000000 0.000000
vn -1.000000 0.000000 -0.000000
vn -1.000000 0.000000 -0.000000
vn -1.000000 0.000000 -0.000000
vn -1.000000 0.000000 -0.000000
vn 0.000000 -1.000000 0.000000
vn 0.000000 -1.000000 0.000000
vn 0.000000 -1.000000 0.000000
vn 0.000000 -1.000000 0.000000
vn 0.000000 0.000000 -1.000000
vn 0.000000 0.000000 -1.000000
vn 0.000000 0.000000 -1.000000
vn 0.000000 0.000000 -1.000000
vn 0.000000 0.000000 1.000000
vn 0.000000 0.000000 1.000000
vn 0.000000 0.000000 1.000000
vn 0.000000 0.000000 1.000000
s off
g RoperoPuertaIzquierda:pasted__pasted__pasted__pasted__pCube1pasted__pasted__pasted__grouppasted__pasted__group1pasted__group2group105
usemtl RoperoPuertaIzquierda:pasted__lambert2SG5
f 1/1/1 2/2/2 4/3/3 3/4/4
f 3/5/5 4/6/6 6/7/7 5/8/8
f 5/9/9 6/10/10 8/11/11 7/12/12
f 7/13/13 8/14/14 2/15/15 1/16/16
usemtl RoperoPuertaIzquierda:pasted__lambert3SG3
f 2/17/17 8/18/18 6/19/19 4/20/20
usemtl RoperoPuertaIzquierda:pasted__lambert2SG5
f 7/21/21 1/22/22 3/23/23 5/24/24
