# This file uses centimeters as units for non-parametric coordinates.

mtllib RoperoMueble.mtl
g default
v -1.388844 2.430411 2.389315
v -1.388844 2.430411 1.868295
v -1.388844 3.589404 2.389315
v -1.388844 3.589404 1.868295
v -1.394884 3.589404 2.389315
v -1.394884 3.589404 1.868295
v -1.394884 2.430411 2.389315
v -1.394884 2.430411 1.868295
v -0.594493 2.426178 2.394354
v -0.594493 2.426178 2.386261
v -0.594493 3.594879 2.394354
v -0.594493 3.594879 2.386261
v -1.394534 3.594879 2.394354
v -1.394534 3.594879 2.386261
v -1.394534 2.426178 2.394354
v -1.394534 2.426178 2.386261
v -0.594406 3.590058 2.389315
v -0.594406 3.590058 1.868295
v -0.594406 3.596716 2.389315
v -0.594406 3.596716 1.868295
v -1.389957 3.596716 2.389315
v -1.389957 3.596716 1.868295
v -1.389957 3.590058 2.389315
v -1.389957 3.590058 1.868295
v -0.594406 2.826721 2.389315
v -0.594406 2.826721 1.868295
v -0.594406 2.833379 2.389315
v -0.594406 2.833379 1.868295
v -1.389957 2.833379 2.389315
v -1.389957 2.833379 1.868295
v -1.389957 2.826721 2.389315
v -1.389957 2.826721 1.868295
v -0.594406 2.640478 2.389315
v -0.594406 2.640478 1.868295
v -0.594406 2.647136 2.389315
v -0.594406 2.647136 1.868295
v -1.389957 2.647136 2.389315
v -1.389957 2.647136 1.868295
v -1.389957 2.640478 2.389315
v -1.389957 2.640478 1.868295
v -0.594406 2.418394 2.389315
v -0.594406 2.418394 1.868295
v -0.594406 2.425051 2.389315
v -0.594406 2.425051 1.868295
v -1.389957 2.425051 2.389315
v -1.389957 2.425051 1.868295
v -1.389957 2.418394 2.389315
v -1.389957 2.418394 1.868295
v -0.594514 2.430411 2.389315
v -0.594514 2.430411 1.868295
v -0.594514 3.589404 2.389315
v -0.594514 3.589404 1.868295
v -0.600554 3.589404 2.389315
v -0.600554 3.589404 1.868295
v -0.600554 2.430411 2.389315
v -0.600554 2.430411 1.868295
v -1.392825 3.470102 2.131811
v -1.392825 3.474744 2.134176
v -1.392825 3.478428 2.137860
v -1.392825 3.480793 2.142502
v -1.392825 3.481608 2.147648
v -1.392825 3.480793 2.152793
v -1.392825 3.478428 2.157435
v -1.392825 3.474744 2.161119
v -1.392825 3.470102 2.163484
v -1.392825 3.464956 2.164299
v -1.392825 3.459811 2.163484
v -1.392825 3.455169 2.161119
v -1.392825 3.451485 2.157435
v -1.392825 3.449120 2.152793
v -1.392825 3.448305 2.147648
v -1.392825 3.449120 2.142502
v -1.392825 3.451485 2.137860
v -1.392825 3.455169 2.134176
v -1.392825 3.459811 2.131811
v -1.392825 3.464956 2.130996
v -0.596127 3.470102 2.131811
v -0.596127 3.474744 2.134176
v -0.596127 3.478428 2.137860
v -0.596127 3.480793 2.142502
v -0.596127 3.481608 2.147648
v -0.596127 3.480793 2.152793
v -0.596127 3.478428 2.157435
v -0.596127 3.474744 2.161119
v -0.596127 3.470102 2.163484
v -0.596127 3.464956 2.164299
v -0.596127 3.459811 2.163484
v -0.596127 3.455169 2.161119
v -0.596127 3.451485 2.157435
v -0.596127 3.449120 2.152793
v -0.596127 3.448305 2.147648
v -0.596127 3.449120 2.142502
v -0.596127 3.451485 2.137860
v -0.596127 3.455169 2.134176
v -0.596127 3.459811 2.131811
v -0.596127 3.464956 2.130996
v -1.392825 3.464956 2.147648
v -0.596127 3.464956 2.147648
vt 0.265942 0.232395
vt 0.402635 0.232395
vt 0.099716 0.592404
vt 0.402635 0.369088
vt 0.042865 0.815396
vt 0.157323 0.650011
vt 0.265942 0.642474
vt 0.179558 0.952089
vt 0.265942 0.779167
vt 0.402635 0.779167
vt 0.539328 0.232395
vt 0.539328 0.369088
vt 0.129249 0.232395
vt 0.129249 0.369088
vt 0.183250 0.807395
vt 0.402635 0.232395
vt 0.402635 0.369088
vt 0.099716 0.592404
vt 0.157323 0.650011
vt 0.099716 0.650011
vt 0.157323 0.707618
vt 0.265942 0.642474
vt 0.402635 0.779167
vt 0.265942 0.779167
vt 0.539328 0.232395
vt 0.539328 0.369088
vt 0.046557 0.807395
vt 0.046557 0.944088
vt 0.265942 0.232395
vt 0.402635 0.232395
vt 0.402635 0.369088
vt 0.040942 0.809472
vt 0.177635 0.946165
vt 0.099716 0.650011
vt 0.157323 0.707618
vt 0.265942 0.642474
vt 0.402635 0.779167
vt 0.265942 0.779167
vt 0.539328 0.232395
vt 0.539328 0.369088
vt 0.129249 0.232395
vt 0.129249 0.369088
vt 0.265942 0.232395
vt 0.161217 0.820522
vt 0.402635 0.369088
vt 0.106685 0.599373
vt 0.150354 0.643042
vt 0.099716 0.650011
vt 0.157323 0.707618
vt 0.265942 0.642474
vt 0.402635 0.779167
vt 0.265942 0.779167
vt 0.539328 0.232395
vt 0.539328 0.369088
vt 0.129249 0.232395
vt 0.129249 0.369088
vt 0.265942 0.232395
vt 0.176604 0.810882
vt 0.402635 0.369088
vt 0.099716 0.592404
vt 0.157323 0.650011
vt 0.099716 0.650011
vt 0.157323 0.707618
vt 0.265942 0.642474
vt 0.402635 0.779167
vt 0.265942 0.779167
vt 0.539328 0.232395
vt 0.539328 0.369088
vt 0.129249 0.232395
vt 0.129249 0.369088
vt 0.265942 0.232395
vt 0.402635 0.232395
vt 0.402635 0.369088
vt 0.099716 0.592404
vt 0.157323 0.650011
vt 0.099716 0.650011
vt 0.157323 0.707618
vt 0.060974 0.837506
vt 0.146064 0.922596
vt 0.060974 0.922596
vt 0.539328 0.232395
vt 0.539328 0.369088
vt 0.129249 0.232395
vt 0.129249 0.369088
vt 0.265942 0.232395
vt 0.185022 0.798085
vt 0.402635 0.369088
vt 0.099716 0.592404
vt 0.157323 0.650011
vt 0.099716 0.650011
vt 0.157323 0.707618
vt 0.265942 0.642474
vt 0.402635 0.779167
vt 0.265942 0.779167
vt 0.539328 0.232395
vt 0.539328 0.369088
vt 0.129249 0.232395
vt 0.129249 0.369088
vt 0.099716 0.606806
vt 0.102596 0.606806
vt 0.102596 0.693433
vt 0.099716 0.693433
vt 0.105477 0.606806
vt 0.105477 0.693433
vt 0.108357 0.606806
vt 0.108357 0.693433
vt 0.111237 0.606806
vt 0.111237 0.693433
vt 0.114118 0.606806
vt 0.114118 0.693433
vt 0.116998 0.606806
vt 0.116998 0.693433
vt 0.119878 0.606806
vt 0.119878 0.693433
vt 0.122759 0.606806
vt 0.122759 0.693433
vt 0.125639 0.606806
vt 0.125639 0.693433
vt 0.128519 0.606806
vt 0.128519 0.693433
vt 0.131400 0.606806
vt 0.131400 0.693433
vt 0.134280 0.606806
vt 0.134280 0.693433
vt 0.137160 0.606806
vt 0.137160 0.693433
vt 0.140041 0.606806
vt 0.140041 0.693433
vt 0.142921 0.606806
vt 0.142921 0.693433
vt 0.145801 0.606806
vt 0.145801 0.693433
vt 0.148682 0.606806
vt 0.148682 0.693433
vt 0.151562 0.606806
vt 0.151562 0.693433
vt 0.154442 0.606806
vt 0.154442 0.693433
vt 0.157323 0.606806
vt 0.157323 0.693433
vt 0.403405 0.267611
vt 0.415540 0.291427
vt 0.334289 0.314410
vt 0.384505 0.248711
vt 0.360689 0.236576
vt 0.334289 0.232395
vt 0.307888 0.236576
vt 0.284072 0.248711
vt 0.265172 0.267611
vt 0.253037 0.291427
vt 0.248855 0.317828
vt 0.253037 0.344228
vt 0.265172 0.368044
vt 0.284072 0.386945
vt 0.307888 0.399079
vt 0.334289 0.403261
vt 0.360689 0.399079
vt 0.384505 0.386945
vt 0.403405 0.368044
vt 0.415540 0.344228
vt 0.419722 0.317828
vt 0.415540 0.720134
vt 0.403405 0.743950
vt 0.334289 0.690316
vt 0.384505 0.762850
vt 0.360689 0.774985
vt 0.334289 0.779167
vt 0.307888 0.774985
vt 0.284072 0.762850
vt 0.265172 0.743950
vt 0.253037 0.720134
vt 0.248855 0.693733
vt 0.253037 0.667333
vt 0.265172 0.643517
vt 0.284072 0.624617
vt 0.307888 0.612482
vt 0.334289 0.608300
vt 0.360689 0.612482
vt 0.384505 0.624617
vt 0.403405 0.643517
vt 0.415540 0.667333
vt 0.419722 0.693733
vt 0.154442 0.693433
vt 0.419722 0.693733
vt 0.334289 0.690316
vt 0.334289 0.690316
vt 0.334289 0.690316
vt 0.334289 0.690316
vt 0.334289 0.690316
vt 0.334289 0.690316
vt 0.334289 0.690316
vt 0.334289 0.690316
vt 0.334289 0.690316
vt 0.334289 0.690316
vt 0.334289 0.690316
vt 0.334289 0.690316
vt 0.334289 0.690316
vt 0.334289 0.690316
vt 0.334289 0.690316
vt 0.334289 0.690316
vt 0.334289 0.690316
vt 0.334289 0.690316
vt 0.334289 0.690316
vt 0.151562 0.693433
vt 0.415540 0.667333
vt 0.148682 0.693433
vt 0.403405 0.643517
vt 0.145801 0.693433
vt 0.384505 0.624617
vt 0.142921 0.693433
vt 0.360689 0.612482
vt 0.140041 0.693433
vt 0.334289 0.608300
vt 0.137160 0.693433
vt 0.307888 0.612482
vt 0.134280 0.693433
vt 0.284072 0.624617
vt 0.131400 0.693433
vt 0.265172 0.643517
vt 0.128519 0.693433
vt 0.253037 0.667333
vt 0.125639 0.693433
vt 0.248855 0.693733
vt 0.122759 0.693433
vt 0.253037 0.720134
vt 0.119878 0.693433
vt 0.265172 0.743950
vt 0.116998 0.693433
vt 0.284072 0.762850
vt 0.114118 0.693433
vt 0.307888 0.774985
vt 0.111237 0.693433
vt 0.334289 0.779167
vt 0.108357 0.693433
vt 0.360689 0.774985
vt 0.105477 0.693433
vt 0.384505 0.762850
vt 0.102596 0.693433
vt 0.403405 0.743950
vt 0.415540 0.720134
vt 0.334289 0.314410
vt 0.334289 0.314410
vt 0.334289 0.314410
vt 0.334289 0.314410
vt 0.334289 0.314410
vt 0.334289 0.314410
vt 0.334289 0.314410
vt 0.334289 0.314410
vt 0.334289 0.314410
vt 0.334289 0.314410
vt 0.334289 0.314410
vt 0.334289 0.314410
vt 0.334289 0.314410
vt 0.334289 0.314410
vt 0.334289 0.314410
vt 0.334289 0.314410
vt 0.334289 0.314410
vt 0.334289 0.314410
vt 0.334289 0.314410
vt 0.154442 0.606806
vt 0.419722 0.317828
vt 0.151562 0.606806
vt 0.415540 0.344228
vt 0.148682 0.606806
vt 0.403405 0.368044
vt 0.145801 0.606806
vt 0.384505 0.386945
vt 0.142921 0.606806
vt 0.360689 0.399079
vt 0.140041 0.606806
vt 0.334289 0.403261
vt 0.137160 0.606806
vt 0.307888 0.399079
vt 0.134280 0.606806
vt 0.284072 0.386945
vt 0.131400 0.606806
vt 0.265172 0.368044
vt 0.128519 0.606806
vt 0.253037 0.344228
vt 0.125639 0.606806
vt 0.248855 0.317828
vt 0.122759 0.606806
vt 0.253037 0.291427
vt 0.119878 0.606806
vt 0.265172 0.267611
vt 0.116998 0.606806
vt 0.284072 0.248711
vt 0.114118 0.606806
vt 0.307888 0.236576
vt 0.111237 0.606806
vt 0.334289 0.232395
vt 0.108357 0.606806
vt 0.360689 0.236576
vt 0.105477 0.606806
vt 0.384505 0.248711
vt 0.102596 0.606806
vt 0.403405 0.267611
vt 0.415540 0.291427
vt 0.402635 0.642474
vt 0.402635 0.232395
vt 0.099716 0.707618
vt 0.029709 0.798085
vt 0.157323 0.650011
vt 0.099716 0.650011
vt 0.185022 0.953398
vt 0.157323 0.592404
vt 0.029709 0.953398
vt 0.265942 0.369088
vt 0.146064 0.837506
vt 0.402635 0.232395
vt 0.099716 0.707618
vt 0.265942 0.232395
vt 0.157323 0.650011
vt 0.099716 0.650011
vt 0.402635 0.369088
vt 0.157323 0.592404
vt 0.265942 0.369088
vt 0.265942 0.369088
vt 0.402635 0.642474
vt 0.402635 0.232395
vt 0.099716 0.707618
vt 0.039911 0.810882
vt 0.157323 0.650011
vt 0.099716 0.650011
vt 0.176604 0.947575
vt 0.157323 0.592404
vt 0.039911 0.947575
vt 0.265942 0.369088
vt 0.402635 0.642474
vt 0.402635 0.232395
vt 0.099716 0.707618
vt 0.051467 0.820522
vt 0.157323 0.650011
vt 0.106685 0.643042
vt 0.161217 0.930272
vt 0.150354 0.599373
vt 0.051467 0.930272
vt 0.265942 0.369088
vt 0.402635 0.642474
vt 0.402635 0.232395
vt 0.099716 0.707618
vt 0.265942 0.232395
vt 0.157323 0.650011
vt 0.040942 0.946165
vt 0.402635 0.369088
vt 0.177635 0.809472
vt 0.265942 0.369088
vt 0.265942 0.369088
vt 0.402635 0.642474
vt 0.402635 0.232395
vt 0.099716 0.707618
vt 0.265942 0.232395
vt 0.157323 0.650011
vt 0.099716 0.650011
vt 0.402635 0.369088
vt 0.157323 0.592404
vt 0.265942 0.369088
vt 0.183250 0.944088
vt 0.402635 0.642474
vt 0.402635 0.232395
vt 0.042865 0.952089
vt 0.265942 0.232395
vt 0.179558 0.815396
vt 0.099716 0.650011
vt 0.402635 0.369088
vt 0.157323 0.592404
vt 0.265942 0.369088
vt 0.265942 0.369088
vn 1.000000 0.000000 0.000000
vn 1.000000 0.000000 0.000000
vn 1.000000 0.000000 0.000000
vn 1.000000 0.000000 0.000000
vn 0.000000 1.000000 0.000000
vn 0.000000 1.000000 0.000000
vn 0.000000 1.000000 0.000000
vn 0.000000 1.000000 0.000000
vn -1.000000 0.000000 -0.000000
vn -1.000000 0.000000 -0.000000
vn -1.000000 0.000000 -0.000000
vn -1.000000 0.000000 -0.000000
vn 0.000000 -1.000000 0.000000
vn 0.000000 -1.000000 0.000000
vn 0.000000 -1.000000 0.000000
vn 0.000000 -1.000000 0.000000
vn 0.000000 0.000000 -1.000000
vn 0.000000 0.000000 -1.000000
vn 0.000000 0.000000 -1.000000
vn 0.000000 0.000000 -1.000000
vn 0.000000 0.000000 1.000000
vn 0.000000 0.000000 1.000000
vn 0.000000 0.000000 1.000000
vn 0.000000 0.000000 1.000000
vn 1.000000 0.000000 0.000000
vn 1.000000 0.000000 0.000000
vn 1.000000 0.000000 0.000000
vn 1.000000 0.000000 0.000000
vn 0.000000 1.000000 0.000000
vn 0.000000 1.000000 0.000000
vn 0.000000 1.000000 0.000000
vn 0.000000 1.000000 0.000000
vn -1.000000 0.000000 -0.000000
vn -1.000000 0.000000 -0.000000
vn -1.000000 0.000000 -0.000000
vn -1.000000 0.000000 -0.000000
vn 0.000000 -1.000000 0.000000
vn 0.000000 -1.000000 0.000000
vn 0.000000 -1.000000 0.000000
vn 0.000000 -1.000000 0.000000
vn 0.000000 0.000000 -1.000000
vn 0.000000 0.000000 -1.000000
vn 0.000000 0.000000 -1.000000
vn 0.000000 0.000000 -1.000000
vn 0.000000 0.000000 1.000000
vn 0.000000 0.000000 1.000000
vn 0.000000 0.000000 1.000000
vn 0.000000 0.000000 1.000000
vn 1.000000 0.000000 0.000000
vn 1.000000 0.000000 0.000000
vn 1.000000 0.000000 0.000000
vn 1.000000 0.000000 0.000000
vn 0.000000 1.000000 0.000000
vn 0.000000 1.000000 0.000000
vn 0.000000 1.000000 0.000000
vn 0.000000 1.000000 0.000000
vn -1.000000 0.000000 -0.000000
vn -1.000000 0.000000 -0.000000
vn -1.000000 0.000000 -0.000000
vn -1.000000 0.000000 -0.000000
vn 0.000000 -1.000000 0.000000
vn 0.000000 -1.000000 0.000000
vn 0.000000 -1.000000 0.000000
vn 0.000000 -1.000000 0.000000
vn 0.000000 0.000000 -1.000000
vn 0.000000 0.000000 -1.000000
vn 0.000000 0.000000 -1.000000
vn 0.000000 0.000000 -1.000000
vn 0.000000 0.000000 1.000000
vn 0.000000 0.000000 1.000000
vn 0.000000 0.000000 1.000000
vn 0.000000 0.000000 1.000000
vn 1.000000 0.000000 0.000000
vn 1.000000 0.000000 0.000000
vn 1.000000 0.000000 0.000000
vn 1.000000 0.000000 0.000000
vn 0.000000 1.000000 0.000000
vn 0.000000 1.000000 0.000000
vn 0.000000 1.000000 0.000000
vn 0.000000 1.000000 0.000000
vn -1.000000 0.000000 -0.000000
vn -1.000000 0.000000 -0.000000
vn -1.000000 0.000000 -0.000000
vn -1.000000 0.000000 -0.000000
vn 0.000000 -1.000000 0.000000
vn 0.000000 -1.000000 0.000000
vn 0.000000 -1.000000 0.000000
vn 0.000000 -1.000000 0.000000
vn 0.000000 0.000000 -1.000000
vn 0.000000 0.000000 -1.000000
vn 0.000000 0.000000 -1.000000
vn 0.000000 0.000000 -1.000000
vn 0.000000 0.000000 1.000000
vn 0.000000 0.000000 1.000000
vn 0.000000 0.000000 1.000000
vn 0.000000 0.000000 1.000000
vn 1.000000 0.000000 0.000000
vn 1.000000 0.000000 0.000000
vn 1.000000 0.000000 0.000000
vn 1.000000 0.000000 0.000000
vn 0.000000 1.000000 0.000000
vn 0.000000 1.000000 0.000000
vn 0.000000 1.000000 0.000000
vn 0.000000 1.000000 0.000000
vn -1.000000 0.000000 -0.000000
vn -1.000000 0.000000 -0.000000
vn -1.000000 0.000000 -0.000000
vn -1.000000 0.000000 -0.000000
vn 0.000000 -1.000000 0.000000
vn 0.000000 -1.000000 0.000000
vn 0.000000 -1.000000 0.000000
vn 0.000000 -1.000000 0.000000
vn 0.000000 0.000000 -1.000000
vn 0.000000 0.000000 -1.000000
vn 0.000000 0.000000 -1.000000
vn 0.000000 0.000000 -1.000000
vn 0.000000 0.000000 1.000000
vn 0.000000 0.000000 1.000000
vn 0.000000 0.000000 1.000000
vn 0.000000 0.000000 1.000000
vn 1.000000 0.000000 0.000000
vn 1.000000 0.000000 0.000000
vn 1.000000 0.000000 0.000000
vn 1.000000 0.000000 0.000000
vn 0.000000 1.000000 0.000000
vn 0.000000 1.000000 0.000000
vn 0.000000 1.000000 0.000000
vn 0.000000 1.000000 0.000000
vn -1.000000 0.000000 -0.000000
vn -1.000000 0.000000 -0.000000
vn -1.000000 0.000000 -0.000000
vn -1.000000 0.000000 -0.000000
vn 0.000000 -1.000000 0.000000
vn 0.000000 -1.000000 0.000000
vn 0.000000 -1.000000 0.000000
vn 0.000000 -1.000000 0.000000
vn 0.000000 0.000000 -1.000000
vn 0.000000 0.000000 -1.000000
vn 0.000000 0.000000 -1.000000
vn 0.000000 0.000000 -1.000000
vn 0.000000 0.000000 1.000000
vn 0.000000 0.000000 1.000000
vn 0.000000 0.000000 1.000000
vn 0.000000 0.000000 1.000000
vn 1.000000 0.000000 0.000000
vn 1.000000 0.000000 0.000000
vn 1.000000 0.000000 0.000000
vn 1.000000 0.000000 0.000000
vn 0.000000 1.000000 0.000000
vn 0.000000 1.000000 0.000000
vn 0.000000 1.000000 0.000000
vn 0.000000 1.000000 0.000000
vn -1.000000 0.000000 -0.000000
vn -1.000000 0.000000 -0.000000
vn -1.000000 0.000000 -0.000000
vn -1.000000 0.000000 -0.000000
vn 0.000000 -1.000000 0.000000
vn 0.000000 -1.000000 0.000000
vn 0.000000 -1.000000 0.000000
vn 0.000000 -1.000000 0.000000
vn 0.000000 0.000000 -1.000000
vn 0.000000 0.000000 -1.000000
vn 0.000000 0.000000 -1.000000
vn 0.000000 0.000000 -1.000000
vn 0.000000 0.000000 1.000000
vn 0.000000 0.000000 1.000000
vn 0.000000 0.000000 1.000000
vn 0.000000 0.000000 1.000000
vn 0.000000 0.309013 -0.951058
vn 0.000000 0.587790 -0.809014
vn 0.000000 0.587790 -0.809014
vn 0.000000 0.309013 -0.951058
vn 0.000000 0.809020 -0.587781
vn 0.000000 0.809020 -0.587781
vn 0.000000 0.951057 -0.309016
vn 0.000000 0.951057 -0.309016
vn 0.000000 1.000000 0.000000
vn 0.000000 1.000000 0.000000
vn 0.000000 0.951057 0.309016
vn 0.000000 0.951057 0.309016
vn 0.000000 0.809009 0.587796
vn 0.000000 0.809009 0.587796
vn 0.000000 0.587790 0.809014
vn 0.000000 0.587790 0.809014
vn 0.000000 0.309023 0.951055
vn 0.000000 0.309023 0.951055
vn 0.000000 0.000000 1.000000
vn 0.000000 0.000000 1.000000
vn 0.000000 -0.309023 0.951055
vn 0.000000 -0.309023 0.951055
vn 0.000000 -0.587790 0.809014
vn 0.000000 -0.587790 0.809014
vn 0.000000 -0.809009 0.587796
vn 0.000000 -0.809009 0.587796
vn 0.000000 -0.951057 0.309016
vn 0.000000 -0.951057 0.309016
vn 0.000000 -1.000000 0.000000
vn 0.000000 -1.000000 0.000000
vn 0.000000 -0.951057 -0.309016
vn 0.000000 -0.951057 -0.309016
vn 0.000000 -0.809009 -0.587796
vn 0.000000 -0.809009 -0.587796
vn 0.000000 -0.587790 -0.809014
vn 0.000000 -0.587790 -0.809014
vn 0.000000 -0.309020 -0.951056
vn 0.000000 -0.309020 -0.951056
vn 0.000000 0.000000 -1.000000
vn 0.000000 0.000000 -1.000000
vn -1.000000 0.000000 -0.000005
vn -1.000000 0.000000 -0.000000
vn -1.000000 0.000000 -0.000001
vn -1.000000 0.000000 -0.000005
vn -1.000000 0.000000 -0.000000
vn -1.000000 0.000000 -0.000000
vn -1.000000 0.000000 -0.000000
vn -1.000000 0.000000 -0.000000
vn -1.000000 0.000000 -0.000000
vn -1.000000 0.000000 -0.000000
vn -1.000000 0.000000 -0.000000
vn -1.000000 0.000000 -0.000000
vn -1.000000 0.000000 -0.000000
vn -1.000000 0.000000 -0.000000
vn -1.000000 0.000000 -0.000000
vn -1.000000 0.000000 -0.000000
vn -1.000000 0.000000 -0.000000
vn -1.000000 0.000000 -0.000000
vn -1.000000 0.000000 -0.000000
vn -1.000000 0.000000 -0.000000
vn -1.000000 0.000000 -0.000000
vn 1.000000 0.000000 0.000000
vn 1.000000 0.000000 0.000000
vn 1.000000 0.000000 0.000000
vn 1.000000 0.000000 -0.000005
vn 1.000000 0.000000 -0.000005
vn 1.000000 0.000000 0.000000
vn 1.000000 0.000000 0.000000
vn 1.000000 0.000000 0.000000
vn 1.000000 0.000000 0.000000
vn 1.000000 0.000000 0.000000
vn 1.000000 0.000000 0.000000
vn 1.000000 0.000000 0.000000
vn 1.000000 0.000000 0.000000
vn 1.000000 0.000000 0.000005
vn 1.000000 0.000000 0.000005
vn 1.000000 0.000000 0.000000
vn 1.000000 0.000000 0.000000
vn 1.000000 0.000000 0.000000
vn 1.000000 0.000000 0.000000
vn 1.000000 0.000000 0.000000
vn 1.000000 0.000000 0.000000
s off
g pasted__group4_pasted__pCube2 group105
usemtl pasted__lambert2SG5
f 1/362/1 2/2/2 4/365/3 3/367/4
f 3/3/5 4/366/6 6/6/7 5/364/8
f 5/5/9 6/363/10 8/8/11 7/361/12
f 7/7/13 8/359/14 2/10/15 1/9/16
f 2/360/17 8/11/18 6/12/19 4/4/20
f 7/13/21 1/1/22 3/368/23 5/14/24
f 9/352/25 10/16/26 12/355/27 11/357/28
f 11/18/29 12/356/30 14/19/31 13/354/32
f 13/20/33 14/353/34 16/21/35 15/351/36
f 15/22/37 16/349/38 10/23/39 9/24/40
f 10/350/41 16/25/42 14/26/43 12/17/44
f 15/27/45 9/15/46 11/358/47 13/28/48
f 17/342/49 18/30/50 20/345/51 19/347/52
f 19/32/53 20/346/54 22/33/55 21/344/56
f 21/34/57 22/343/58 24/35/59 23/341/60
f 23/36/61 24/339/62 18/37/63 17/38/64
f 18/340/65 24/39/66 22/40/67 20/31/68
f 23/41/69 17/29/70 19/348/71 21/42/72
f 25/332/73 26/44/74 28/335/75 27/337/76
f 27/46/77 28/336/78 30/47/79 29/334/80
f 29/48/81 30/333/82 32/49/83 31/331/84
f 31/50/85 32/329/86 26/51/87 25/52/88
f 26/330/89 32/53/90 30/54/91 28/45/92
f 31/55/93 25/43/94 27/338/95 29/56/96
f 33/322/97 34/58/98 36/325/99 35/327/100
f 35/60/101 36/326/102 38/61/103 37/324/104
f 37/62/105 38/323/106 40/63/107 39/321/108
f 39/64/109 40/319/110 34/65/111 33/66/112
f 34/320/113 40/67/114 38/68/115 36/59/116
f 39/69/117 33/57/118 35/328/119 37/70/120
f 41/312/121 42/72/122 44/315/123 43/317/124
f 43/74/125 44/316/126 46/75/127 45/314/128
f 45/76/129 46/313/130 48/77/131 47/311/132
f 47/78/133 48/309/134 42/79/135 41/80/136
f 42/310/137 48/81/138 46/82/139 44/73/140
f 47/83/141 41/71/142 43/318/143 45/84/144
f 49/302/145 50/86/146 52/305/147 51/307/148
f 51/88/149 52/306/150 54/89/151 53/304/152
f 53/90/153 54/303/154 56/91/155 55/301/156
f 55/92/157 56/299/158 50/93/159 49/94/160
f 50/300/161 56/95/162 54/96/163 52/87/164
f 55/97/165 49/85/166 51/308/167 53/98/168
s 1
f 57/99/169 58/100/170 78/238/171 77/102/172
f 58/296/170 59/103/173 79/236/174 78/101/171
f 59/294/173 60/105/175 80/234/176 79/104/174
f 60/292/175 61/107/177 81/232/178 80/106/176
f 61/290/177 62/109/179 82/230/180 81/108/178
f 62/288/179 63/111/181 83/228/182 82/110/180
f 63/286/181 64/113/183 84/226/184 83/112/182
f 64/284/183 65/115/185 85/224/186 84/114/184
f 65/282/185 66/117/187 86/222/188 85/116/186
f 66/280/187 67/119/189 87/220/190 86/118/188
f 67/278/189 68/121/191 88/218/192 87/120/190
f 68/276/191 69/123/193 89/216/194 88/122/192
f 69/274/193 70/125/195 90/214/196 89/124/194
f 70/272/195 71/127/197 91/212/198 90/126/196
f 71/270/197 72/129/199 92/210/200 91/128/198
f 72/268/199 73/131/201 93/208/202 92/130/200
f 73/266/201 74/133/203 94/206/204 93/132/202
f 74/264/203 75/135/205 95/204/206 94/134/204
f 75/262/205 76/137/207 96/183/208 95/136/206
f 76/260/207 57/139/169 77/140/172 96/138/208
s 2
f 58/141/209 57/298/210 97/241/211
f 59/144/212 58/297/209 97/242/211
f 60/145/213 59/295/212 97/243/211
f 61/146/214 60/293/213 97/244/211
f 62/147/215 61/291/214 97/245/211
f 63/148/216 62/289/215 97/246/211
f 64/149/217 63/287/216 97/247/211
f 65/150/218 64/285/217 97/248/211
f 66/151/219 65/283/218 97/249/211
f 67/152/220 66/281/219 97/250/211
f 68/153/221 67/279/220 97/251/211
f 69/154/222 68/277/221 97/252/211
f 70/155/223 69/275/222 97/253/211
f 71/156/224 70/273/223 97/254/211
f 72/157/225 71/271/224 97/255/211
f 73/158/226 72/269/225 97/256/211
f 74/159/227 73/267/226 97/257/211
f 75/160/228 74/265/227 97/258/211
f 76/161/229 75/263/228 97/259/211
f 57/142/210 76/261/229 97/143/211
s 3
f 77/162/230 78/239/231 98/202/232
f 78/163/231 79/237/233 98/201/232
f 79/165/233 80/235/234 98/200/232
f 80/166/234 81/233/235 98/199/232
f 81/167/235 82/231/236 98/198/232
f 82/168/236 83/229/237 98/197/232
f 83/169/237 84/227/238 98/196/232
f 84/170/238 85/225/239 98/195/232
f 85/171/239 86/223/240 98/194/232
f 86/172/240 87/221/241 98/193/232
f 87/173/241 88/219/242 98/192/232
f 88/174/242 89/217/243 98/191/232
f 89/175/243 90/215/244 98/190/232
f 90/176/244 91/213/245 98/189/232
f 91/177/245 92/211/246 98/188/232
f 92/178/246 93/209/247 98/187/232
f 93/179/247 94/207/248 98/186/232
f 94/180/248 95/205/249 98/185/232
f 95/181/249 96/184/250 98/164/232
f 96/182/250 77/240/230 98/203/232
